/* XPM */
static char *fb48cc5220754d74d34919ca609c159c5haQlMLsm3XEJqtw[] = {
/* columns rows colors chars-per-pixel */
"128 128 7 1 ",
"  c #290C0C",
". c #491515",
"X c #4F2718",
"o c #A75223",
"O c #B55C2A",
"+ c #BF782C",
"@ c #CC8F4E",
/* pixels */
"    ++++@@@@@@@@@@@@++++++++++++++++++++++++++++++++OOOOOOOOOOOO    OOOOOOOO++++@@@@@@@@@@@@++++++++++++++++++++OOOOOOOOOOOOoooo",
"    ++++@@@@@@@@@@@@++++++++++++++++++++++++++++++++OOOOOOOOOOOO    OOOOOOOO++++@@@@@@@@@@@@++++++++++++++++++++OOOOOOOOOOOOoooo",
"    ++++@@@@@@@@@@@@++++++++++++++++++++++++++++++++OOOOOOOOOOOO    OOOOOOOO++++@@@@@@@@@@@@++++++++++++++++++++OOOOOOOOOOOOoooo",
"    ++++@@@@@@@@@@@@++++++++++++++++++++++++++++++++OOOOOOOOOOOO    OOOOOOOO++++@@@@@@@@@@@@++++++++++++++++++++OOOOOOOOOOOOoooo",
"....OOOO++++++++++++++++++++++++++++++++++++++++++++++++OOOOoooo....OOOO++++++++++++++++++++++++++++++++OOOOoooooooooooooooooooo",
"....OOOO++++++++++++++++++++++++++++++++++++++++++++++++OOOOoooo....OOOO++++++++++++++++++++++++++++++++OOOOoooooooooooooooooooo",
"....OOOO++++++++++++++++++++++++++++++++++++++++++++++++OOOOoooo....OOOO++++++++++++++++++++++++++++++++OOOOoooooooooooooooooooo",
"....OOOO++++++++++++++++++++++++++++++++++++++++++++++++OOOOoooo....OOOO++++++++++++++++++++++++++++++++OOOOoooooooooooooooooooo",
"....OOOOOOOOOOOOOOOOOOOOOOOOOOOOOOOOOOOOoooooooooooooooooooooooo....OOOOOOOOOOOOOOOOOOOOOOOOOOOOOOOOoooooooooooooooooooooooooooo",
"....OOOOOOOOOOOOOOOOOOOOOOOOOOOOOOOOOOOOoooooooooooooooooooooooo....OOOOOOOOOOOOOOOOOOOOOOOOOOOOOOOOoooooooooooooooooooooooooooo",
"....OOOOOOOOOOOOOOOOOOOOOOOOOOOOOOOOOOOOoooooooooooooooooooooooo....OOOOOOOOOOOOOOOOOOOOOOOOOOOOOOOOoooooooooooooooooooooooooooo",
"....OOOOOOOOOOOOOOOOOOOOOOOOOOOOOOOOOOOOoooooooooooooooooooooooo....OOOOOOOOOOOOOOOOOOOOOOOOOOOOOOOOoooooooooooooooooooooooooooo",
"XXXXooooOOOOOOOOOOOOoooooooooooooooooooooooooooooooooooooooooooo....ooooOOOOOOOOOOOOOOOOOOOOOOOOOOOOoooooooooooooooooooooooooooo",
"XXXXooooOOOOOOOOOOOOoooooooooooooooooooooooooooooooooooooooooooo....ooooOOOOOOOOOOOOOOOOOOOOOOOOOOOOoooooooooooooooooooooooooooo",
"XXXXooooOOOOOOOOOOOOoooooooooooooooooooooooooooooooooooooooooooo....ooooOOOOOOOOOOOOOOOOOOOOOOOOOOOOoooooooooooooooooooooooooooo",
"XXXXooooOOOOOOOOOOOOoooooooooooooooooooooooooooooooooooooooooooo....ooooOOOOOOOOOOOOOOOOOOOOOOOOOOOOoooooooooooooooooooooooooooo",
"....oooooooooooooooooooooooooooooooooooooooooooooooooooooooooooo....ooooOOOOOOOOOOOOOOOOOOOOOOOOOOOOoooooooooooooooooooooooooooo",
"....oooooooooooooooooooooooooooooooooooooooooooooooooooooooooooo....ooooOOOOOOOOOOOOOOOOOOOOOOOOOOOOoooooooooooooooooooooooooooo",
"....oooooooooooooooooooooooooooooooooooooooooooooooooooooooooooo....ooooOOOOOOOOOOOOOOOOOOOOOOOOOOOOoooooooooooooooooooooooooooo",
"....oooooooooooooooooooooooooooooooooooooooooooooooooooooooooooo....ooooOOOOOOOOOOOOOOOOOOOOOOOOOOOOoooooooooooooooooooooooooooo",
"....oooooooooooooooooooooooooooooooooooooooooooooooooooooooooooo....ooooooooooooOOOOOOOOOOOOoooooooooooooooooooooooooooooooooooo",
"....oooooooooooooooooooooooooooooooooooooooooooooooooooooooooooo....ooooooooooooOOOOOOOOOOOOoooooooooooooooooooooooooooooooooooo",
"....oooooooooooooooooooooooooooooooooooooooooooooooooooooooooooo....ooooooooooooOOOOOOOOOOOOoooooooooooooooooooooooooooooooooooo",
"....oooooooooooooooooooooooooooooooooooooooooooooooooooooooooooo....ooooooooooooOOOOOOOOOOOOoooooooooooooooooooooooooooooooooooo",
"    oooooooooooooooooooooooooooooooooooooooooooooooooooooooooooo    oooooooooooooooooooooooooooooooooooooooooooooooooooooooooooo",
"    oooooooooooooooooooooooooooooooooooooooooooooooooooooooooooo    oooooooooooooooooooooooooooooooooooooooooooooooooooooooooooo",
"    oooooooooooooooooooooooooooooooooooooooooooooooooooooooooooo    oooooooooooooooooooooooooooooooooooooooooooooooooooooooooooo",
"    oooooooooooooooooooooooooooooooooooooooooooooooooooooooooooo    oooooooooooooooooooooooooooooooooooooooooooooooooooooooooooo",
"        XXXXXXXX....                            ............            ........                        ........XXXXXXXX....    ",
"        XXXXXXXX....                            ............            ........                        ........XXXXXXXX....    ",
"        XXXXXXXX....                            ............            ........                        ........XXXXXXXX....    ",
"        XXXXXXXX....                            ............            ........                        ........XXXXXXXX....    ",
"++++++++++++++++OOOOOOOOOOOO    ++++@@@@@@@@@@@@@@@@++++++++++++++++OOOOOOOOOOOOOOOOOOOOOOOO    ++++++++@@@@@@@@@@@@@@@@++++++++",
"++++++++++++++++OOOOOOOOOOOO    ++++@@@@@@@@@@@@@@@@++++++++++++++++OOOOOOOOOOOOOOOOOOOOOOOO    ++++++++@@@@@@@@@@@@@@@@++++++++",
"++++++++++++++++OOOOOOOOOOOO    ++++@@@@@@@@@@@@@@@@++++++++++++++++OOOOOOOOOOOOOOOOOOOOOOOO    ++++++++@@@@@@@@@@@@@@@@++++++++",
"++++++++++++++++OOOOOOOOOOOO    ++++@@@@@@@@@@@@@@@@++++++++++++++++OOOOOOOOOOOOOOOOOOOOOOOO    ++++++++@@@@@@@@@@@@@@@@++++++++",
"OOOOOOOOoooooooooooooooooooo....OOOO++++++++++++++++++++++++++++OOOOOOOOOOOOOOOOOOOOOOOOOOOO....OOOOOOOOOOOO++++++++++++++++++++",
"OOOOOOOOoooooooooooooooooooo....OOOO++++++++++++++++++++++++++++OOOOOOOOOOOOOOOOOOOOOOOOOOOO....OOOOOOOOOOOO++++++++++++++++++++",
"OOOOOOOOoooooooooooooooooooo....OOOO++++++++++++++++++++++++++++OOOOOOOOOOOOOOOOOOOOOOOOOOOO....OOOOOOOOOOOO++++++++++++++++++++",
"OOOOOOOOoooooooooooooooooooo....OOOO++++++++++++++++++++++++++++OOOOOOOOOOOOOOOOOOOOOOOOOOOO....OOOOOOOOOOOO++++++++++++++++++++",
"oooooooooooooooooooooooooooo....OOOOOOOOOOOOOOOOOOOOOOOOOOOOOOOOOOOOOOOOooooooooooooooooooooXXXXooooOOOOOOOOOOOOOOOOOOOOOOOOOOOO",
"oooooooooooooooooooooooooooo....OOOOOOOOOOOOOOOOOOOOOOOOOOOOOOOOOOOOOOOOooooooooooooooooooooXXXXooooOOOOOOOOOOOOOOOOOOOOOOOOOOOO",
"oooooooooooooooooooooooooooo....OOOOOOOOOOOOOOOOOOOOOOOOOOOOOOOOOOOOOOOOooooooooooooooooooooXXXXooooOOOOOOOOOOOOOOOOOOOOOOOOOOOO",
"oooooooooooooooooooooooooooo....OOOOOOOOOOOOOOOOOOOOOOOOOOOOOOOOOOOOOOOOooooooooooooooooooooXXXXooooOOOOOOOOOOOOOOOOOOOOOOOOOOOO",
"oooooooooooooooooooooooooooo....ooooooooOOOOOOOOOOOOOOOOOOOOOOOOooooooooooooooooooooooooooooXXXXoooooooooooooooooooooooooooooooo",
"oooooooooooooooooooooooooooo....ooooooooOOOOOOOOOOOOOOOOOOOOOOOOooooooooooooooooooooooooooooXXXXoooooooooooooooooooooooooooooooo",
"oooooooooooooooooooooooooooo....ooooooooOOOOOOOOOOOOOOOOOOOOOOOOooooooooooooooooooooooooooooXXXXoooooooooooooooooooooooooooooooo",
"oooooooooooooooooooooooooooo....ooooooooOOOOOOOOOOOOOOOOOOOOOOOOooooooooooooooooooooooooooooXXXXoooooooooooooooooooooooooooooooo",
"oooooooooooooooooooooooooooo....ooooooooooooooooooooooooooooooooooooooooooooooooooooooooooooXXXXoooooooooooooooooooooooooooooooo",
"oooooooooooooooooooooooooooo....ooooooooooooooooooooooooooooooooooooooooooooooooooooooooooooXXXXoooooooooooooooooooooooooooooooo",
"oooooooooooooooooooooooooooo....ooooooooooooooooooooooooooooooooooooooooooooooooooooooooooooXXXXoooooooooooooooooooooooooooooooo",
"oooooooooooooooooooooooooooo....ooooooooooooooooooooooooooooooooooooooooooooooooooooooooooooXXXXoooooooooooooooooooooooooooooooo",
"oooooooooooooooooooooooooooo....oooooooooooooooooooooooooooooooooooooooooooooooooooooooooooo....oooooooooooooooooooooooooooooooo",
"oooooooooooooooooooooooooooo....oooooooooooooooooooooooooooooooooooooooooooooooooooooooooooo....oooooooooooooooooooooooooooooooo",
"oooooooooooooooooooooooooooo....oooooooooooooooooooooooooooooooooooooooooooooooooooooooooooo....oooooooooooooooooooooooooooooooo",
"oooooooooooooooooooooooooooo....oooooooooooooooooooooooooooooooooooooooooooooooooooooooooooo....oooooooooooooooooooooooooooooooo",
"oooooooooooooooooooooooooooo    oooooooooooooooooooooooooooooooooooooooooooooooooooooooooooo    oooooooooooooooooooooooooooooooo",
"oooooooooooooooooooooooooooo    oooooooooooooooooooooooooooooooooooooooooooooooooooooooooooo    oooooooooooooooooooooooooooooooo",
"oooooooooooooooooooooooooooo    oooooooooooooooooooooooooooooooooooooooooooooooooooooooooooo    oooooooooooooooooooooooooooooooo",
"oooooooooooooooooooooooooooo    oooooooooooooooooooooooooooooooooooooooooooooooooooooooooooo    oooooooooooooooooooooooooooooooo",
"                ........                        ............                                            ....XXXX....            ",
"                ........                        ............                                            ....XXXX....            ",
"                ........                        ............                                            ....XXXX....            ",
"                ........                        ............                                            ....XXXX....            ",
"    OOOO++++@@@@@@@@@@@@@@@@++++++++++++++++++++OOOOOOOOOOOOoooo    ++++++++@@@@@@@@@@@@@@@@++++++++++++++++OOOOoooooooooooooooo",
"    OOOO++++@@@@@@@@@@@@@@@@++++++++++++++++++++OOOOOOOOOOOOoooo    ++++++++@@@@@@@@@@@@@@@@++++++++++++++++OOOOoooooooooooooooo",
"    OOOO++++@@@@@@@@@@@@@@@@++++++++++++++++++++OOOOOOOOOOOOoooo    ++++++++@@@@@@@@@@@@@@@@++++++++++++++++OOOOoooooooooooooooo",
"    OOOO++++@@@@@@@@@@@@@@@@++++++++++++++++++++OOOOOOOOOOOOoooo    ++++++++@@@@@@@@@@@@@@@@++++++++++++++++OOOOoooooooooooooooo",
"....++++++++++++++++++++++++++++++++OOOOOOOOooooooooooooOOOOOOOO    OOOOOOOO++++++++++++++++++++++++++++++++++++OOOOOOOOOOOOOOOO",
"....++++++++++++++++++++++++++++++++OOOOOOOOooooooooooooOOOOOOOO    OOOOOOOO++++++++++++++++++++++++++++++++++++OOOOOOOOOOOOOOOO",
"....++++++++++++++++++++++++++++++++OOOOOOOOooooooooooooOOOOOOOO    OOOOOOOO++++++++++++++++++++++++++++++++++++OOOOOOOOOOOOOOOO",
"....++++++++++++++++++++++++++++++++OOOOOOOOooooooooooooOOOOOOOO    OOOOOOOO++++++++++++++++++++++++++++++++++++OOOOOOOOOOOOOOOO",
"....ooooOOOOOOOOOOOOOOOOooooooooOOOOOOOOoooooooooooooooooooooooo....ooooooooOOOOOOOOOOOOOOOO++++++++++++OOOOOOOOOOOOOOOOOOOOOOOO",
"....ooooOOOOOOOOOOOOOOOOooooooooOOOOOOOOoooooooooooooooooooooooo....ooooooooOOOOOOOOOOOOOOOO++++++++++++OOOOOOOOOOOOOOOOOOOOOOOO",
"....ooooOOOOOOOOOOOOOOOOooooooooOOOOOOOOoooooooooooooooooooooooo....ooooooooOOOOOOOOOOOOOOOO++++++++++++OOOOOOOOOOOOOOOOOOOOOOOO",
"....ooooOOOOOOOOOOOOOOOOooooooooOOOOOOOOoooooooooooooooooooooooo....ooooooooOOOOOOOOOOOOOOOO++++++++++++OOOOOOOOOOOOOOOOOOOOOOOO",
"....oooooooooooooooooooooooooooooooooooooooooooooooooooooooooooo....OOOOOOOOOOOOOOOOOOOOoooooooooooooooooooooooooooooooooooooooo",
"....oooooooooooooooooooooooooooooooooooooooooooooooooooooooooooo....OOOOOOOOOOOOOOOOOOOOoooooooooooooooooooooooooooooooooooooooo",
"....oooooooooooooooooooooooooooooooooooooooooooooooooooooooooooo....OOOOOOOOOOOOOOOOOOOOoooooooooooooooooooooooooooooooooooooooo",
"....oooooooooooooooooooooooooooooooooooooooooooooooooooooooooooo....OOOOOOOOOOOOOOOOOOOOoooooooooooooooooooooooooooooooooooooooo",
"....oooooooooooooooooooooooooooooooooooooooooooooooooooooooooooo....oooooooooooooooooooooooooooooooooooooooooooooooooooooooooooo",
"....oooooooooooooooooooooooooooooooooooooooooooooooooooooooooooo....oooooooooooooooooooooooooooooooooooooooooooooooooooooooooooo",
"....oooooooooooooooooooooooooooooooooooooooooooooooooooooooooooo....oooooooooooooooooooooooooooooooooooooooooooooooooooooooooooo",
"....oooooooooooooooooooooooooooooooooooooooooooooooooooooooooooo....oooooooooooooooooooooooooooooooooooooooooooooooooooooooooooo",
"....oooooooooooooooooooooooooooooooooooooooooooooooooooooooooooo....oooooooooooooooooooooooooooooooooooooooooooooooooooooooooooo",
"....oooooooooooooooooooooooooooooooooooooooooooooooooooooooooooo....oooooooooooooooooooooooooooooooooooooooooooooooooooooooooooo",
"....oooooooooooooooooooooooooooooooooooooooooooooooooooooooooooo....oooooooooooooooooooooooooooooooooooooooooooooooooooooooooooo",
"....oooooooooooooooooooooooooooooooooooooooooooooooooooooooooooo....oooooooooooooooooooooooooooooooooooooooooooooooooooooooooooo",
"    oooooooooooooooooooooooooooooooooooooooooooooooooooooooooooo    oooooooooooooooooooooooooooooooooooooooooooooooooooooooooooo",
"    oooooooooooooooooooooooooooooooooooooooooooooooooooooooooooo    oooooooooooooooooooooooooooooooooooooooooooooooooooooooooooo",
"    oooooooooooooooooooooooooooooooooooooooooooooooooooooooooooo    oooooooooooooooooooooooooooooooooooooooooooooooooooooooooooo",
"    oooooooooooooooooooooooooooooooooooooooooooooooooooooooooooo    oooooooooooooooooooooooooooooooooooooooooooooooooooooooooooo",
"        ........                    ............XXXXXXXX                    ........                    ....XXXXXXXXXXXX....    ",
"        ........                    ............XXXXXXXX                    ........                    ....XXXXXXXXXXXX....    ",
"        ........                    ............XXXXXXXX                    ........                    ....XXXXXXXXXXXX....    ",
"        ........                    ............XXXXXXXX                    ........                    ....XXXXXXXXXXXX....    ",
"ooooOOOOOOOOoooooooooooooooo    ++++@@@@@@@@@@@@@@@@@@@@@@@@++++++++++++OOOOoooooooooooooooo    oooo++++@@@@@@@@++++OOOOOOOOoooo",
"ooooOOOOOOOOoooooooooooooooo    ++++@@@@@@@@@@@@@@@@@@@@@@@@++++++++++++OOOOoooooooooooooooo    oooo++++@@@@@@@@++++OOOOOOOOoooo",
"ooooOOOOOOOOoooooooooooooooo    ++++@@@@@@@@@@@@@@@@@@@@@@@@++++++++++++OOOOoooooooooooooooo    oooo++++@@@@@@@@++++OOOOOOOOoooo",
"ooooOOOOOOOOoooooooooooooooo    ++++@@@@@@@@@@@@@@@@@@@@@@@@++++++++++++OOOOoooooooooooooooo    oooo++++@@@@@@@@++++OOOOOOOOoooo",
"++++++++oooooooooooooooooooo....OOOO++++++++++++++++++++++++++++++++++++++++++++OOOOoooooooo....++++++++++++++++++++++++++++++++",
"++++++++oooooooooooooooooooo....OOOO++++++++++++++++++++++++++++++++++++++++++++OOOOoooooooo....++++++++++++++++++++++++++++++++",
"++++++++oooooooooooooooooooo....OOOO++++++++++++++++++++++++++++++++++++++++++++OOOOoooooooo....++++++++++++++++++++++++++++++++",
"++++++++oooooooooooooooooooo....OOOO++++++++++++++++++++++++++++++++++++++++++++OOOOoooooooo....++++++++++++++++++++++++++++++++",
"OOOOOOOOOOOOOOOOooooooooooooXXXXooooooooOOOOOOOOOOOOOOOO++++++++++++++++OOOOOOOOooooooooooooXXXXooooOOOOOOOOOOOOOOOOOOOOOOOOOOOO",
"OOOOOOOOOOOOOOOOooooooooooooXXXXooooooooOOOOOOOOOOOOOOOO++++++++++++++++OOOOOOOOooooooooooooXXXXooooOOOOOOOOOOOOOOOOOOOOOOOOOOOO",
"OOOOOOOOOOOOOOOOooooooooooooXXXXooooooooOOOOOOOOOOOOOOOO++++++++++++++++OOOOOOOOooooooooooooXXXXooooOOOOOOOOOOOOOOOOOOOOOOOOOOOO",
"OOOOOOOOOOOOOOOOooooooooooooXXXXooooooooOOOOOOOOOOOOOOOO++++++++++++++++OOOOOOOOooooooooooooXXXXooooOOOOOOOOOOOOOOOOOOOOOOOOOOOO",
"ooooooooooooooooooooooooooooXXXXooooooooooooOOOOOOOOooooooooooooooooooooooooooooooooooooooooXXXXooooOOOOOOOOOOOOOOOOOOOOOOOOOOOO",
"ooooooooooooooooooooooooooooXXXXooooooooooooOOOOOOOOooooooooooooooooooooooooooooooooooooooooXXXXooooOOOOOOOOOOOOOOOOOOOOOOOOOOOO",
"ooooooooooooooooooooooooooooXXXXooooooooooooOOOOOOOOooooooooooooooooooooooooooooooooooooooooXXXXooooOOOOOOOOOOOOOOOOOOOOOOOOOOOO",
"ooooooooooooooooooooooooooooXXXXooooooooooooOOOOOOOOooooooooooooooooooooooooooooooooooooooooXXXXooooOOOOOOOOOOOOOOOOOOOOOOOOOOOO",
"oooooooooooooooooooooooooooo....oooooooooooooooooooooooooooooooooooooooooooooooooooooooooooo....ooooooooOOOOOOOOOOOOoooooooooooo",
"oooooooooooooooooooooooooooo....oooooooooooooooooooooooooooooooooooooooooooooooooooooooooooo....ooooooooOOOOOOOOOOOOoooooooooooo",
"oooooooooooooooooooooooooooo....oooooooooooooooooooooooooooooooooooooooooooooooooooooooooooo....ooooooooOOOOOOOOOOOOoooooooooooo",
"oooooooooooooooooooooooooooo....oooooooooooooooooooooooooooooooooooooooooooooooooooooooooooo....ooooooooOOOOOOOOOOOOoooooooooooo",
"oooooooooooooooooooooooooooo....oooooooooooooooooooooooooooooooooooooooooooooooooooooooooooo....oooooooooooooooooooooooooooooooo",
"oooooooooooooooooooooooooooo....oooooooooooooooooooooooooooooooooooooooooooooooooooooooooooo....oooooooooooooooooooooooooooooooo",
"oooooooooooooooooooooooooooo....oooooooooooooooooooooooooooooooooooooooooooooooooooooooooooo....oooooooooooooooooooooooooooooooo",
"oooooooooooooooooooooooooooo....oooooooooooooooooooooooooooooooooooooooooooooooooooooooooooo....oooooooooooooooooooooooooooooooo",
"oooooooooooooooooooooooooooo    oooooooooooooooooooooooooooooooooooooooooooooooooooooooooooo    oooooooooooooooooooooooooooooooo",
"oooooooooooooooooooooooooooo    oooooooooooooooooooooooooooooooooooooooooooooooooooooooooooo    oooooooooooooooooooooooooooooooo",
"oooooooooooooooooooooooooooo    oooooooooooooooooooooooooooooooooooooooooooooooooooooooooooo    oooooooooooooooooooooooooooooooo",
"oooooooooooooooooooooooooooo    oooooooooooooooooooooooooooooooooooooooooooooooooooooooooooo    oooooooooooooooooooooooooooooooo",
"                                        ........XXXXXXXXXXXX            ....XXXX....                ....XXXXXXXXXXXX........    ",
"                                        ........XXXXXXXXXXXX            ....XXXX....                ....XXXXXXXXXXXX........    ",
"                                        ........XXXXXXXXXXXX            ....XXXX....                ....XXXXXXXXXXXX........    ",
"                                        ........XXXXXXXXXXXX            ....XXXX....                ....XXXXXXXXXXXX........    "
};
