/* XPM */
static char *b1492e49e912478bc049f007906090f8spn6a9exDW54T2YW[] = {
/* columns rows colors chars-per-pixel */
"128 128 5 1 ",
"  c #406B81",
". c #559CAC",
"X c #6FC2C1",
"o c #C7DCDA",
"O c #EEF6F5",
/* pixels */
"XXXXooooooooooooOOOOOOOOOOOOOOOOXXXX    ....ooooooooooooooooooooXXXXXXXXoooooooo........        ooooOOOOooooooooOOOOOOOOoooooooo",
"XXXXooooooooooooOOOOOOOOOOOOOOOOXXXX    ....ooooooooooooooooooooXXXXXXXXoooooooo........        ooooOOOOooooooooOOOOOOOOoooooooo",
"XXXXooooooooooooOOOOOOOOOOOOOOOOXXXX    ....ooooooooooooooooooooXXXXXXXXoooooooo........        ooooOOOOooooooooOOOOOOOOoooooooo",
"XXXXooooooooooooOOOOOOOOOOOOOOOOXXXX    ....ooooooooooooooooooooXXXXXXXXoooooooo........        ooooOOOOooooooooOOOOOOOOoooooooo",
"XXXXooooooooooooooooOOOOOOOOoooo....    XXXXooooooooooooooooooooXXXXXXXXXXXXXXXX........    ....OOOOooooooooooooOOOOOOOOooooXXXX",
"XXXXooooooooooooooooOOOOOOOOoooo....    XXXXooooooooooooooooooooXXXXXXXXXXXXXXXX........    ....OOOOooooooooooooOOOOOOOOooooXXXX",
"XXXXooooooooooooooooOOOOOOOOoooo....    XXXXooooooooooooooooooooXXXXXXXXXXXXXXXX........    ....OOOOooooooooooooOOOOOOOOooooXXXX",
"XXXXooooooooooooooooOOOOOOOOoooo....    XXXXooooooooooooooooooooXXXXXXXXXXXXXXXX........    ....OOOOooooooooooooOOOOOOOOooooXXXX",
"ooooooooooooooooOOOOOOOOOOOOXXXX        ooooooooooooooooooooXXXXXXXXXXXXXXXXXXXX....        ooooOOOOooooooooOOOOOOOOooooooooXXXX",
"ooooooooooooooooOOOOOOOOOOOOXXXX        ooooooooooooooooooooXXXXXXXXXXXXXXXXXXXX....        ooooOOOOooooooooOOOOOOOOooooooooXXXX",
"ooooooooooooooooOOOOOOOOOOOOXXXX        ooooooooooooooooooooXXXXXXXXXXXXXXXXXXXX....        ooooOOOOooooooooOOOOOOOOooooooooXXXX",
"ooooooooooooooooOOOOOOOOOOOOXXXX        ooooooooooooooooooooXXXXXXXXXXXXXXXXXXXX....        ooooOOOOooooooooOOOOOOOOooooooooXXXX",
"ooooooooooooooooOOOOOOOOoooo....        ooooooooooooooooooooXXXXXXXXXXXXXXXX........    ....OOOOooooooooooooOOOOOOOOooooXXXXXXXX",
"ooooooooooooooooOOOOOOOOoooo....        ooooooooooooooooooooXXXXXXXXXXXXXXXX........    ....OOOOooooooooooooOOOOOOOOooooXXXXXXXX",
"ooooooooooooooooOOOOOOOOoooo....        ooooooooooooooooooooXXXXXXXXXXXXXXXX........    ....OOOOooooooooooooOOOOOOOOooooXXXXXXXX",
"ooooooooooooooooOOOOOOOOoooo....        ooooooooooooooooooooXXXXXXXXXXXXXXXX........    ....OOOOooooooooooooOOOOOOOOooooXXXXXXXX",
"ooooooooooooooooOOOOOOOOXXXX        ....ooooooooooooooooXXXXXXXXXXXXXXXX........        ooooOOOOooooooooOOOOOOOOOOOOooooXXXXoooo",
"ooooooooooooooooOOOOOOOOXXXX        ....ooooooooooooooooXXXXXXXXXXXXXXXX........        ooooOOOOooooooooOOOOOOOOOOOOooooXXXXoooo",
"ooooooooooooooooOOOOOOOOXXXX        ....ooooooooooooooooXXXXXXXXXXXXXXXX........        ooooOOOOooooooooOOOOOOOOOOOOooooXXXXoooo",
"ooooooooooooooooOOOOOOOOXXXX        ....ooooooooooooooooXXXXXXXXXXXXXXXX........        ooooOOOOooooooooOOOOOOOOOOOOooooXXXXoooo",
"ooooooooooooOOOOOOOOOOOO....        XXXXooooooooooooooooXXXXXXXXXXXXXXXX........        ooooooooooooooooOOOOOOOOooooooooXXXXoooo",
"ooooooooooooOOOOOOOOOOOO....        XXXXooooooooooooooooXXXXXXXXXXXXXXXX........        ooooooooooooooooOOOOOOOOooooooooXXXXoooo",
"ooooooooooooOOOOOOOOOOOO....        XXXXooooooooooooooooXXXXXXXXXXXXXXXX........        ooooooooooooooooOOOOOOOOooooooooXXXXoooo",
"ooooooooooooOOOOOOOOOOOO....        XXXXooooooooooooooooXXXXXXXXXXXXXXXX........        ooooooooooooooooOOOOOOOOooooooooXXXXoooo",
"ooooooooooooOOOOOOOOoooo            XXXXXXXXXXXXXXXXXXXXXXXXXXXXXXXXXXXX....        ....ooooooooooooOOOOOOOOOOOOooooXXXXoooooooo",
"ooooooooooooOOOOOOOOoooo            XXXXXXXXXXXXXXXXXXXXXXXXXXXXXXXXXXXX....        ....ooooooooooooOOOOOOOOOOOOooooXXXXoooooooo",
"ooooooooooooOOOOOOOOoooo            XXXXXXXXXXXXXXXXXXXXXXXXXXXXXXXXXXXX....        ....ooooooooooooOOOOOOOOOOOOooooXXXXoooooooo",
"ooooooooooooOOOOOOOOoooo            XXXXXXXXXXXXXXXXXXXXXXXXXXXXXXXXXXXX....        ....ooooooooooooOOOOOOOOOOOOooooXXXXoooooooo",
"ooooooooOOOOOOOOOOOOXXXX            ....XXXXXXXXXXXXXXXXXXXXXXXXXXXXXXXX....    ....ooooooooooooooooOOOOOOOOOOOOooooXXXXoooooooo",
"ooooooooOOOOOOOOOOOOXXXX            ....XXXXXXXXXXXXXXXXXXXXXXXXXXXXXXXX....    ....ooooooooooooooooOOOOOOOOOOOOooooXXXXoooooooo",
"ooooooooOOOOOOOOOOOOXXXX            ....XXXXXXXXXXXXXXXXXXXXXXXXXXXXXXXX....    ....ooooooooooooooooOOOOOOOOOOOOooooXXXXoooooooo",
"ooooooooOOOOOOOOOOOOXXXX            ....XXXXXXXXXXXXXXXXXXXXXXXXXXXXXXXX....    ....ooooooooooooooooOOOOOOOOOOOOooooXXXXoooooooo",
"ooooooooOOOOOOOOoooo....                    ........XXXXXXXXXXXXXXXX................ooooooooooooOOOOOOOOOOOOoooooooooooooooooooo",
"ooooooooOOOOOOOOoooo....                    ........XXXXXXXXXXXXXXXX................ooooooooooooOOOOOOOOOOOOoooooooooooooooooooo",
"ooooooooOOOOOOOOoooo....                    ........XXXXXXXXXXXXXXXX................ooooooooooooOOOOOOOOOOOOoooooooooooooooooooo",
"ooooooooOOOOOOOOoooo....                    ........XXXXXXXXXXXXXXXX................ooooooooooooOOOOOOOOOOOOoooooooooooooooooooo",
"ooooooooOOOOOOOOXXXX                ................XXXXXXXXXXXXXXXX............ooooooooooooooooOOOOOOOOOOOOooooXXXXoooooooooooo",
"ooooooooOOOOOOOOXXXX                ................XXXXXXXXXXXXXXXX............ooooooooooooooooOOOOOOOOOOOOooooXXXXoooooooooooo",
"ooooooooOOOOOOOOXXXX                ................XXXXXXXXXXXXXXXX............ooooooooooooooooOOOOOOOOOOOOooooXXXXoooooooooooo",
"ooooooooOOOOOOOOXXXX                ................XXXXXXXXXXXXXXXX............ooooooooooooooooOOOOOOOOOOOOooooXXXXoooooooooooo",
"ooooOOOOOOOOoooo....            ........XXXXXXXX....XXXXXXXXXXXX................ooooooooooooOOOOOOOOOOOOooooooooooooooooooooXXXX",
"ooooOOOOOOOOoooo....            ........XXXXXXXX....XXXXXXXXXXXX................ooooooooooooOOOOOOOOOOOOooooooooooooooooooooXXXX",
"ooooOOOOOOOOoooo....            ........XXXXXXXX....XXXXXXXXXXXX................ooooooooooooOOOOOOOOOOOOooooooooooooooooooooXXXX",
"ooooOOOOOOOOoooo....            ........XXXXXXXX....XXXXXXXXXXXX................ooooooooooooOOOOOOOOOOOOooooooooooooooooooooXXXX",
"ooooOOOOOOOOXXXX            ............XXXXXXXX    XXXXXXXXXXXX............ooooooooooooooooOOOOOOOOOOOOooooXXXXoooooooooooooooo",
"ooooOOOOOOOOXXXX            ............XXXXXXXX    XXXXXXXXXXXX............ooooooooooooooooOOOOOOOOOOOOooooXXXXoooooooooooooooo",
"ooooOOOOOOOOXXXX            ............XXXXXXXX    XXXXXXXXXXXX............ooooooooooooooooOOOOOOOOOOOOooooXXXXoooooooooooooooo",
"ooooOOOOOOOOXXXX            ............XXXXXXXX    XXXXXXXXXXXX............ooooooooooooooooOOOOOOOOOOOOooooXXXXoooooooooooooooo",
"ooooOOOOoooo....            ........XXXXXXXXXXXX    ....XXXXXXXX............ooooooooooooooooOOOOOOOOooooooooXXXXooooooooXXXXoooo",
"ooooOOOOoooo....            ........XXXXXXXXXXXX    ....XXXXXXXX............ooooooooooooooooOOOOOOOOooooooooXXXXooooooooXXXXoooo",
"ooooOOOOoooo....            ........XXXXXXXXXXXX    ....XXXXXXXX............ooooooooooooooooOOOOOOOOooooooooXXXXooooooooXXXXoooo",
"ooooOOOOoooo....            ........XXXXXXXXXXXX    ....XXXXXXXX............ooooooooooooooooOOOOOOOOooooooooXXXXooooooooXXXXoooo",
"ooooOOOOXXXX            ....XXXXXXXXXXXXXXXX....        XXXXXXXXXXXX........ooooooooooooOOOOOOOOOOOOoooooooooooooooooooooooooooo",
"ooooOOOOXXXX            ....XXXXXXXXXXXXXXXX....        XXXXXXXXXXXX........ooooooooooooOOOOOOOOOOOOoooooooooooooooooooooooooooo",
"ooooOOOOXXXX            ....XXXXXXXXXXXXXXXX....        XXXXXXXXXXXX........ooooooooooooOOOOOOOOOOOOoooooooooooooooooooooooooooo",
"ooooOOOOXXXX            ....XXXXXXXXXXXXXXXX....        XXXXXXXXXXXX........ooooooooooooOOOOOOOOOOOOoooooooooooooooooooooooooooo",
"ooooooooXXXX            ....XXXXXXXXXXXXXXXX........    XXXXXXXXXXXX....ooooooooooooooooOOOOOOOOOOOOooooXXXXooooooooXXXXoooooooo",
"ooooooooXXXX            ....XXXXXXXXXXXXXXXX........    XXXXXXXXXXXX....ooooooooooooooooOOOOOOOOOOOOooooXXXXooooooooXXXXoooooooo",
"ooooooooXXXX            ....XXXXXXXXXXXXXXXX........    XXXXXXXXXXXX....ooooooooooooooooOOOOOOOOOOOOooooXXXXooooooooXXXXoooooooo",
"ooooooooXXXX            ....XXXXXXXXXXXXXXXX........    XXXXXXXXXXXX....ooooooooooooooooOOOOOOOOOOOOooooXXXXooooooooXXXXoooooooo",
"ooooXXXX....        ....XXXXXXXXXXXXooooXXXXXXXXXXXX....XXXXXXXXXXXXooooooooooooooooOOOOOOOOOOOOooooooooooooooooooooXXXXoooooooo",
"ooooXXXX....        ....XXXXXXXXXXXXooooXXXXXXXXXXXX....XXXXXXXXXXXXooooooooooooooooOOOOOOOOOOOOooooooooooooooooooooXXXXoooooooo",
"ooooXXXX....        ....XXXXXXXXXXXXooooXXXXXXXXXXXX....XXXXXXXXXXXXooooooooooooooooOOOOOOOOOOOOooooooooooooooooooooXXXXoooooooo",
"ooooXXXX....        ....XXXXXXXXXXXXooooXXXXXXXXXXXX....XXXXXXXXXXXXooooooooooooooooOOOOOOOOOOOOooooooooooooooooooooXXXXoooooooo",
"ooooXXXX            ....XXXXXXXXooooXXXXXXXXXXXXXXXX....XXXXXXXXXXXXooooooooooooooooOOOOOOOOOOOOooooooooooooOOOOXXXXXXXXoooooooo",
"ooooXXXX            ....XXXXXXXXooooXXXXXXXXXXXXXXXX....XXXXXXXXXXXXooooooooooooooooOOOOOOOOOOOOooooooooooooOOOOXXXXXXXXoooooooo",
"ooooXXXX            ....XXXXXXXXooooXXXXXXXXXXXXXXXX....XXXXXXXXXXXXooooooooooooooooOOOOOOOOOOOOooooooooooooOOOOXXXXXXXXoooooooo",
"ooooXXXX            ....XXXXXXXXooooXXXXXXXXXXXXXXXX....XXXXXXXXXXXXooooooooooooooooOOOOOOOOOOOOooooooooooooOOOOXXXXXXXXoooooooo",
"XXXX....        ....XXXXXXXXXXXXooooXXXXooooooooXXXX....XXXXXXXXooooooooooooooooooooOOOOOOOOooooooooooooOOOOooooXXXXXXXXoooooooo",
"XXXX....        ....XXXXXXXXXXXXooooXXXXooooooooXXXX....XXXXXXXXooooooooooooooooooooOOOOOOOOooooooooooooOOOOooooXXXXXXXXoooooooo",
"XXXX....        ....XXXXXXXXXXXXooooXXXXooooooooXXXX....XXXXXXXXooooooooooooooooooooOOOOOOOOooooooooooooOOOOooooXXXXXXXXoooooooo",
"XXXX....        ....XXXXXXXXXXXXooooXXXXooooooooXXXX....XXXXXXXXooooooooooooooooooooOOOOOOOOooooooooooooOOOOooooXXXXXXXXoooooooo",
"XXXX....        ....XXXXXXXXooooXXXXXXXXoooooooo....XXXXXXXXXXXXooooooooooooooooOOOOOOOOOOOOooooooooooooOOOOXXXXXXXXoooooooooooo",
"XXXX....        ....XXXXXXXXooooXXXXXXXXoooooooo....XXXXXXXXXXXXooooooooooooooooOOOOOOOOOOOOooooooooooooOOOOXXXXXXXXoooooooooooo",
"XXXX....        ....XXXXXXXXooooXXXXXXXXoooooooo....XXXXXXXXXXXXooooooooooooooooOOOOOOOOOOOOooooooooooooOOOOXXXXXXXXoooooooooooo",
"XXXX....        ....XXXXXXXXooooXXXXXXXXoooooooo....XXXXXXXXXXXXooooooooooooooooOOOOOOOOOOOOooooooooooooOOOOXXXXXXXXoooooooooooo",
"XXXX        ....XXXXXXXXXXXXooooXXXXooooOOOOoooo....XXXXXXXX....ooooooooooooooooOOOOOOOOooooooooooooOOOOooooXXXXXXXXooooooooXXXX",
"XXXX        ....XXXXXXXXXXXXooooXXXXooooOOOOoooo....XXXXXXXX....ooooooooooooooooOOOOOOOOooooooooooooOOOOooooXXXXXXXXooooooooXXXX",
"XXXX        ....XXXXXXXXXXXXooooXXXXooooOOOOoooo....XXXXXXXX....ooooooooooooooooOOOOOOOOooooooooooooOOOOooooXXXXXXXXooooooooXXXX",
"XXXX        ....XXXXXXXXXXXXooooXXXXooooOOOOoooo....XXXXXXXX....ooooooooooooooooOOOOOOOOooooooooooooOOOOooooXXXXXXXXooooooooXXXX",
"....        ....XXXXXXXXooooXXXXXXXXooooOOOO........XXXXXXXX....ooooooooooooooooOOOOOOOOooooooooooooOOOOXXXXXXXXXXXXooooooooXXXX",
"....        ....XXXXXXXXooooXXXXXXXXooooOOOO........XXXXXXXX....ooooooooooooooooOOOOOOOOooooooooooooOOOOXXXXXXXXXXXXooooooooXXXX",
"....        ....XXXXXXXXooooXXXXXXXXooooOOOO........XXXXXXXX....ooooooooooooooooOOOOOOOOooooooooooooOOOOXXXXXXXXXXXXooooooooXXXX",
"....        ....XXXXXXXXooooXXXXXXXXooooOOOO........XXXXXXXX....ooooooooooooooooOOOOOOOOooooooooooooOOOOXXXXXXXXXXXXooooooooXXXX",
"....    ....XXXXXXXXXXXXooooXXXXooooOOOOoooo....XXXXXXXXXXXX....ooooooooooooOOOOOOOOOOOOooooooooOOOOooooXXXXXXXXXXXXXXXXXXXXXXXX",
"....    ....XXXXXXXXXXXXooooXXXXooooOOOOoooo....XXXXXXXXXXXX....ooooooooooooOOOOOOOOOOOOooooooooOOOOooooXXXXXXXXXXXXXXXXXXXXXXXX",
"....    ....XXXXXXXXXXXXooooXXXXooooOOOOoooo....XXXXXXXXXXXX....ooooooooooooOOOOOOOOOOOOooooooooOOOOooooXXXXXXXXXXXXXXXXXXXXXXXX",
"....    ....XXXXXXXXXXXXooooXXXXooooOOOOoooo....XXXXXXXXXXXX....ooooooooooooOOOOOOOOOOOOooooooooOOOOooooXXXXXXXXXXXXXXXXXXXXXXXX",
"............XXXXXXXXooooXXXXXXXXooooOOOO........XXXXXXXX....XXXXooooooooooooOOOOOOOOooooooooooooOOOOooooXXXX............XXXX....",
"............XXXXXXXXooooXXXXXXXXooooOOOO........XXXXXXXX....XXXXooooooooooooOOOOOOOOooooooooooooOOOOooooXXXX............XXXX....",
"............XXXXXXXXooooXXXXXXXXooooOOOO........XXXXXXXX....XXXXooooooooooooOOOOOOOOooooooooooooOOOOooooXXXX............XXXX....",
"............XXXXXXXXooooXXXXXXXXooooOOOO........XXXXXXXX....XXXXooooooooooooOOOOOOOOooooooooooooOOOOooooXXXX............XXXX....",
"........XXXXXXXXXXXXooooXXXXooooOOOOooooXXXXXXXXXXXXXXXX....ooooooooooooOOOOOOOOOOOOooooooooOOOOooooXXXXXXXX    ........XXXX....",
"........XXXXXXXXXXXXooooXXXXooooOOOOooooXXXXXXXXXXXXXXXX....ooooooooooooOOOOOOOOOOOOooooooooOOOOooooXXXXXXXX    ........XXXX....",
"........XXXXXXXXXXXXooooXXXXooooOOOOooooXXXXXXXXXXXXXXXX....ooooooooooooOOOOOOOOOOOOooooooooOOOOooooXXXXXXXX    ........XXXX....",
"........XXXXXXXXXXXXooooXXXXooooOOOOooooXXXXXXXXXXXXXXXX....ooooooooooooOOOOOOOOOOOOooooooooOOOOooooXXXXXXXX    ........XXXX....",
"........XXXXXXXXooooXXXXooooooooOOOOXXXXXXXXXXXXXXXX....XXXXooooooooooooOOOOOOOOooooooooooooOOOOooooXXXX....    oooooooo........",
"........XXXXXXXXooooXXXXooooooooOOOOXXXXXXXXXXXXXXXX....XXXXooooooooooooOOOOOOOOooooooooooooOOOOooooXXXX....    oooooooo........",
"........XXXXXXXXooooXXXXooooooooOOOOXXXXXXXXXXXXXXXX....XXXXooooooooooooOOOOOOOOooooooooooooOOOOooooXXXX....    oooooooo........",
"........XXXXXXXXooooXXXXooooooooOOOOXXXXXXXXXXXXXXXX....XXXXooooooooooooOOOOOOOOooooooooooooOOOOooooXXXX....    oooooooo........",
"........XXXXXXXXooooooooooooOOOOooooooooooooXXXX........ooooooooooooooooOOOOOOOOooooooooOOOOooooXXXX....    ....OOOOoooo    ....",
"........XXXXXXXXooooooooooooOOOOooooooooooooXXXX........ooooooooooooooooOOOOOOOOooooooooOOOOooooXXXX....    ....OOOOoooo    ....",
"........XXXXXXXXooooooooooooOOOOooooooooooooXXXX........ooooooooooooooooOOOOOOOOooooooooOOOOooooXXXX....    ....OOOOoooo    ....",
"........XXXXXXXXooooooooooooOOOOooooooooooooXXXX........ooooooooooooooooOOOOOOOOooooooooOOOOooooXXXX....    ....OOOOoooo    ....",
"....XXXXXXXXooooXXXXooooooooOOOOoooooooooooo............ooooooooooooooooooooooooooooooooOOOOXXXX....        ooooOOOOoooo        ",
"....XXXXXXXXooooXXXXooooooooOOOOoooooooooooo............ooooooooooooooooooooooooooooooooOOOOXXXX....        ooooOOOOoooo        ",
"....XXXXXXXXooooXXXXooooooooOOOOoooooooooooo............ooooooooooooooooooooooooooooooooOOOOXXXX....        ooooOOOOoooo        ",
"....XXXXXXXXooooXXXXooooooooOOOOoooooooooooo............ooooooooooooooooooooooooooooooooOOOOXXXX....        ooooOOOOoooo        ",
"ooooXXXXXXXXooooooooooooOOOOooooOOOOoooooooo........XXXXoooooooooooooooooooooooooooooooooooo....        ....OOOOoooo........oooo",
"ooooXXXXXXXXooooooooooooOOOOooooOOOOoooooooo........XXXXoooooooooooooooooooooooooooooooooooo....        ....OOOOoooo........oooo",
"ooooXXXXXXXXooooooooooooOOOOooooOOOOoooooooo........XXXXoooooooooooooooooooooooooooooooooooo....        ....OOOOoooo........oooo",
"ooooXXXXXXXXooooooooooooOOOOooooOOOOoooooooo........XXXXoooooooooooooooooooooooooooooooooooo....        ....OOOOoooo........oooo",
"ooooXXXXooooXXXXooooooooOOOOOOOOOOOOoooo....    ....ooooooooooooooooooooooooooooooooooooXXXX            ooooOOOOoooooooooooooooo",
"ooooXXXXooooXXXXooooooooOOOOOOOOOOOOoooo....    ....ooooooooooooooooooooooooooooooooooooXXXX            ooooOOOOoooooooooooooooo",
"ooooXXXXooooXXXXooooooooOOOOOOOOOOOOoooo....    ....ooooooooooooooooooooooooooooooooooooXXXX            ooooOOOOoooooooooooooooo",
"ooooXXXXooooXXXXooooooooOOOOOOOOOOOOoooo....    ....ooooooooooooooooooooooooooooooooooooXXXX            ooooOOOOoooooooooooooooo",
"ooooXXXXXXXXooooooooOOOOooooOOOOOOOOoooo....    XXXXoooooooooooooooooooooooooooooooooooo....        ....OOOOoooooooooooooooooooo",
"ooooXXXXXXXXooooooooOOOOooooOOOOOOOOoooo....    XXXXoooooooooooooooooooooooooooooooooooo....        ....OOOOoooooooooooooooooooo",
"ooooXXXXXXXXooooooooOOOOooooOOOOOOOOoooo....    XXXXoooooooooooooooooooooooooooooooooooo....        ....OOOOoooooooooooooooooooo",
"ooooXXXXXXXXooooooooOOOOooooOOOOOOOOoooo....    XXXXoooooooooooooooooooooooooooooooooooo....        ....OOOOoooooooooooooooooooo",
"XXXXXXXXooooooooooooOOOOOOOOOOOOOOOO....    ....ooooooooooooooooooooooooooooooooooooXXXX....        ooooOOOOooooooooOOOOoooooooo",
"XXXXXXXXooooooooooooOOOOOOOOOOOOOOOO....    ....ooooooooooooooooooooooooooooooooooooXXXX....        ooooOOOOooooooooOOOOoooooooo",
"XXXXXXXXooooooooooooOOOOOOOOOOOOOOOO....    ....ooooooooooooooooooooooooooooooooooooXXXX....        ooooOOOOooooooooOOOOoooooooo",
"XXXXXXXXooooooooooooOOOOOOOOOOOOOOOO....    ....ooooooooooooooooooooooooooooooooooooXXXX....        ooooOOOOooooooooOOOOoooooooo",
"XXXXXXXXooooooooOOOOooooOOOOOOOOoooo....    XXXXooooooooooooooooXXXXooooooooooooXXXX....        ....OOOOooooooooOOOOOOOOoooooooo",
"XXXXXXXXooooooooOOOOooooOOOOOOOOoooo....    XXXXooooooooooooooooXXXXooooooooooooXXXX....        ....OOOOooooooooOOOOOOOOoooooooo",
"XXXXXXXXooooooooOOOOooooOOOOOOOOoooo....    XXXXooooooooooooooooXXXXooooooooooooXXXX....        ....OOOOooooooooOOOOOOOOoooooooo",
"XXXXXXXXooooooooOOOOooooOOOOOOOOoooo....    XXXXooooooooooooooooXXXXooooooooooooXXXX....        ....OOOOooooooooOOOOOOOOoooooooo"
};
