/* XPM */
static char *_ee25aa008514aeee64cb48e1a6e8f7eufqe36WovIi88tb4[] = {
/* columns rows colors chars-per-pixel */
"128 128 8 1 ",
"  c #231F31",
". c #38395D",
"X c #991111",
"o c #C32808",
"O c #C58918",
"+ c #FFBF47",
"@ c #5F6783",
"# c #ACAEA1",
/* pixels */
"                        ....OOOO    ........                        XXXXooooooooOOOO++++++++++++OOOOoooo        ....@@@@@@@@    ",
"                        ....OOOO    ........                        XXXXooooooooOOOO++++++++++++OOOOoooo        ....@@@@@@@@    ",
"                        ....OOOO    ........                        XXXXooooooooOOOO++++++++++++OOOOoooo        ....@@@@@@@@    ",
"                        ....OOOO    ........                        XXXXooooooooOOOO++++++++++++OOOOoooo        ....@@@@@@@@    ",
"                        ....OOOO    ........            XXXXooooooooooooooooOOOOOOOOOOOO++++++++OOOOoooo    ....@@@@....        ",
"                        ....OOOO    ........            XXXXooooooooooooooooOOOOOOOOOOOO++++++++OOOOoooo    ....@@@@....        ",
"                        ....OOOO    ........            XXXXooooooooooooooooOOOOOOOOOOOO++++++++OOOOoooo    ....@@@@....        ",
"                        ....OOOO    ........            XXXXooooooooooooooooOOOOOOOOOOOO++++++++OOOOoooo    ....@@@@....        ",
"                            oooo    ....            oooooooooooooooo############@@@@........oooo++++OOOO............            ",
"                            oooo    ....            oooooooooooooooo############@@@@........oooo++++OOOO............            ",
"                            oooo    ....            oooooooooooooooo############@@@@........oooo++++OOOO............            ",
"                            oooo    ....            oooooooooooooooo############@@@@........oooo++++OOOO............            ",
"                            oooo    ....        XXXXoooo@@@@@@@@############@@@@....    ........++++++++        ........        ",
"                            oooo    ....        XXXXoooo@@@@@@@@############@@@@....    ........++++++++        ........        ",
"                            oooo    ....        XXXXoooo@@@@@@@@############@@@@....    ........++++++++        ........        ",
"                            oooo    ....        XXXXoooo@@@@@@@@############@@@@....    ........++++++++        ........        ",
"                            oooo                oooo@@@@....####@@@@@@@@....            ........++++++++            ....        ",
"                            oooo                oooo@@@@....####@@@@@@@@....            ........++++++++            ....        ",
"                            oooo                oooo@@@@....####@@@@@@@@....            ........++++++++            ....        ",
"                            oooo                oooo@@@@....####@@@@@@@@....            ........++++++++            ....        ",
"............                oooo            XXXXoooo....@@@@@@@@....                    ........OOOO++++OOOOoooo    ............",
"............                oooo            XXXXoooo....@@@@@@@@....                    ........OOOO++++OOOOoooo    ............",
"............                oooo            XXXXoooo....@@@@@@@@....                    ........OOOO++++OOOOoooo    ............",
"............                oooo            XXXXoooo....@@@@@@@@....                    ........OOOO++++OOOOoooo    ............",
"........                    ooooXXXX        OOOO    ....@@@@....                        ....    OOOO++++++++++++OOOOoooo        ",
"........                    ooooXXXX        OOOO    ....@@@@....                        ....    OOOO++++++++++++OOOOoooo        ",
"........                    ooooXXXX        OOOO    ....@@@@....                        ....    OOOO++++++++++++OOOOoooo        ",
"........                    ooooXXXX        OOOO    ....@@@@....                        ....    OOOO++++++++++++OOOOoooo        ",
"XXXX                        ooooOOOOOOOOOOOOOOOO    ....@@@@                            ....OOOOXXXXooooooooOOOO++++++++OOOOOOOO",
"XXXX                        ooooOOOOOOOOOOOOOOOO    ....@@@@                            ....OOOOXXXXooooooooOOOO++++++++OOOOOOOO",
"XXXX                        ooooOOOOOOOOOOOOOOOO    ....@@@@                            ....OOOOXXXXooooooooOOOO++++++++OOOOOOOO",
"XXXX                        ooooOOOOOOOOOOOOOOOO    ....@@@@                            ....OOOOXXXXooooooooOOOO++++++++OOOOOOOO",
"OOOOOOOOXXXX            XXXXOOOO++++++++++++OOOO        ....                                XXXXoooo....@@@@@@@@@@@@@@@@....XXXX",
"OOOOOOOOXXXX            XXXXOOOO++++++++++++OOOO        ....                                XXXXoooo....@@@@@@@@@@@@@@@@....XXXX",
"OOOOOOOOXXXX            XXXXOOOO++++++++++++OOOO        ....                                XXXXoooo....@@@@@@@@@@@@@@@@....XXXX",
"OOOOOOOOXXXX            XXXXOOOO++++++++++++OOOO        ....                                XXXXoooo....@@@@@@@@@@@@@@@@....XXXX",
"XXXXOOOOOOOO++++++++++++++++++++++++++++OOOOOOOOoooo                                    XXXXoooo............        ....@@@@@@@@",
"XXXXOOOOOOOO++++++++++++++++++++++++++++OOOOOOOOoooo                                    XXXXoooo............        ....@@@@@@@@",
"XXXXOOOOOOOO++++++++++++++++++++++++++++OOOOOOOOoooo                                    XXXXoooo............        ....@@@@@@@@",
"XXXXOOOOOOOO++++++++++++++++++++++++++++OOOOOOOOoooo                                    XXXXoooo............        ....@@@@@@@@",
"@@@@ooooOOOOOOOOXXXX....@@@@@@@@....XXXXOOOOOOOOoooo                            ....    oooo....@@@@                    ....@@@@",
"@@@@ooooOOOOOOOOXXXX....@@@@@@@@....XXXXOOOOOOOOoooo                            ....    oooo....@@@@                    ....@@@@",
"@@@@ooooOOOOOOOOXXXX....@@@@@@@@....XXXXOOOOOOOOoooo                            ....    oooo....@@@@                    ....@@@@",
"@@@@ooooOOOOOOOOXXXX....@@@@@@@@....XXXXOOOOOOOOoooo                            ....    oooo....@@@@                    ....@@@@",
"@@@@XXXXXXXX        ........@@@@@@@@####@@@@XXXXOOOO                        ........XXXX....@@@@                            @@@@",
"@@@@XXXXXXXX        ........@@@@@@@@####@@@@XXXXOOOO                        ........XXXX....@@@@                            @@@@",
"@@@@XXXXXXXX        ........@@@@@@@@####@@@@XXXXOOOO                        ........XXXX....@@@@                            @@@@",
"@@@@XXXXXXXX        ........@@@@@@@@####@@@@XXXXOOOO                        ........XXXX....@@@@                            @@@@",
"@@@@XXXXXXXX                ....@@@@############OOOOoooo                ........    XXXX@@@@@@@@            ....            @@@@",
"@@@@XXXXXXXX                ....@@@@############OOOOoooo                ........    XXXX@@@@@@@@            ....            @@@@",
"@@@@XXXXXXXX                ....@@@@############OOOOoooo                ........    XXXX@@@@@@@@            ....            @@@@",
"@@@@XXXXXXXX                ....@@@@############OOOOoooo                ........    XXXX@@@@@@@@            ....            @@@@",
"....XXXX                        ....@@@@########@@@@OOOOoooo        ........    XXXXXXXX....@@@@....    ........            @@@@",
"....XXXX                        ....@@@@########@@@@OOOOoooo        ........    XXXXXXXX....@@@@....    ........            @@@@",
"....XXXX                        ....@@@@########@@@@OOOOoooo        ........    XXXXXXXX....@@@@....    ........            @@@@",
"....XXXX                        ....@@@@########@@@@OOOOoooo        ........    XXXXXXXX....@@@@....    ........            @@@@",
"XXXXXXXX                            ....####@@@@####@@@@OOOOoooooooo        XXXXXXXX........@@@@@@@@........                ....",
"XXXXXXXX                            ....####@@@@####@@@@OOOOoooooooo        XXXXXXXX........@@@@@@@@........                ....",
"XXXXXXXX                            ....####@@@@####@@@@OOOOoooooooo        XXXXXXXX........@@@@@@@@........                ....",
"XXXXXXXX                            ....####@@@@####@@@@OOOOoooooooo        XXXXXXXX........@@@@@@@@........                ....",
"oooo                                    ####....@@@@####@@@@OOOOooooooooooooooooXXXX....    @@@@........                ........",
"oooo                                    ####....@@@@####@@@@OOOOooooooooooooooooXXXX....    @@@@........                ........",
"oooo                                    ####....@@@@####@@@@OOOOooooooooooooooooXXXX....    @@@@........                ........",
"oooo                                    ####....@@@@####@@@@OOOOooooooooooooooooXXXX....    @@@@........                ........",
"oooo....                                ####....    ....@@@@@@@@XXXXoooooooooooo....        ........                    ....    ",
"oooo....                                ####....    ....@@@@@@@@XXXXoooooooooooo....        ........                    ....    ",
"oooo....                                ####....    ....@@@@@@@@XXXXoooooooooooo....        ........                    ....    ",
"oooo....                                ####....    ....@@@@@@@@XXXXoooooooooooo....        ........                    ....    ",
"OOOO....                            @@@@####            @@@@@@@@....XXXXooooXXXX                ....                            ",
"OOOO....                            @@@@####            @@@@@@@@....XXXXooooXXXX                ....                            ",
"OOOO....                            @@@@####            @@@@@@@@....XXXXooooXXXX                ....                            ",
"OOOO....                            @@@@####            @@@@@@@@....XXXXooooXXXX                ....                            ",
"OOOO........        ........@@@@@@@@####@@@@                ....@@@@....oooo                    ....                        XXXX",
"OOOO........        ........@@@@@@@@####@@@@                ....@@@@....oooo                    ....                        XXXX",
"OOOO........        ........@@@@@@@@####@@@@                ....@@@@....oooo                    ....                        XXXX",
"OOOO........        ........@@@@@@@@####@@@@                ....@@@@....oooo                    ....                        XXXX",
"OOOOXXXX....    ....                ........                    ........oooo                ........                    XXXXoooo",
"OOOOXXXX....    ....                ........                    ........oooo                ........                    XXXXoooo",
"OOOOXXXX....    ....                ........                    ........oooo                ........                    XXXXoooo",
"OOOOXXXX....    ....                ........                    ........oooo                ........                    XXXXoooo",
"++++oooo........                        ....                    ........XXXX            ....@@@@@@@@@@@@........    XXXXOOOOOOOO",
"++++oooo........                        ....                    ........XXXX            ....@@@@@@@@@@@@........    XXXXOOOOOOOO",
"++++oooo........                        ....                    ........XXXX            ....@@@@@@@@@@@@........    XXXXOOOOOOOO",
"++++oooo........                        ....                    ........XXXX            ....@@@@@@@@@@@@........    XXXXOOOOOOOO",
"++++OOOOXXXX........                                        ........    XXXX    ....@@@@@@@@....            XXXXooooOOOOOOOO++++",
"++++OOOOXXXX........                                        ........    XXXX    ....@@@@@@@@....            XXXXooooOOOOOOOO++++",
"++++OOOOXXXX........                                        ........    XXXX    ....@@@@@@@@....            XXXXooooOOOOOOOO++++",
"++++OOOOXXXX........                                        ........    XXXX    ....@@@@@@@@....            XXXXooooOOOOOOOO++++",
"++++++++OOOOOOOO    ....                                ............    OOOOXXXX    ........XXXXooooooooooooOOOO++++++++++++++++",
"++++++++OOOOOOOO    ....                                ............    OOOOXXXX    ........XXXXooooooooooooOOOO++++++++++++++++",
"++++++++OOOOOOOO    ....                                ............    OOOOXXXX    ........XXXXooooooooooooOOOO++++++++++++++++",
"++++++++OOOOOOOO    ....                                ............    OOOOXXXX    ........XXXXooooooooooooOOOO++++++++++++++++",
"++++++++++++++++OOOO                                ........        ooooOOOOOOOOOOOOOOOOOOOOoooo............@@@@@@@@@@@@@@@@@@@@",
"++++++++++++++++OOOO                                ........        ooooOOOOOOOOOOOOOOOOOOOOoooo............@@@@@@@@@@@@@@@@@@@@",
"++++++++++++++++OOOO                                ........        ooooOOOOOOOOOOOOOOOOOOOOoooo............@@@@@@@@@@@@@@@@@@@@",
"++++++++++++++++OOOO                                ........        ooooOOOOOOOOOOOOOOOOOOOOoooo............@@@@@@@@@@@@@@@@@@@@",
"####@@@@++++OOOOOOOOXXXX                                        ooooOOOO++++++++++++OOOOoooo@@@@@@@@@@@@............@@@@########",
"####@@@@++++OOOOOOOOXXXX                                        ooooOOOO++++++++++++OOOOoooo@@@@@@@@@@@@............@@@@########",
"####@@@@++++OOOOOOOOXXXX                                        ooooOOOO++++++++++++OOOOoooo@@@@@@@@@@@@............@@@@########",
"####@@@@++++OOOOOOOOXXXX                                        ooooOOOO++++++++++++OOOOoooo@@@@@@@@@@@@............@@@@########",
"############@@@@OOOOooooXXXX                    XXXXooooOOOO++++++++++++++++++++OOOOOOOO@@@@@@@@@@@@....                ....####",
"############@@@@OOOOooooXXXX                    XXXXooooOOOO++++++++++++++++++++OOOOOOOO@@@@@@@@@@@@....                ....####",
"############@@@@OOOOooooXXXX                    XXXXooooOOOO++++++++++++++++++++OOOOOOOO@@@@@@@@@@@@....                ....####",
"############@@@@OOOOooooXXXX                    XXXXooooOOOO++++++++++++++++++++OOOOOOOO@@@@@@@@@@@@....                ....####",
"....############@@@@XXXXooooooooooooOOOOOOOOoooooooo    ....................    ooooOOOO........@@@@@@@@                    ....",
"....############@@@@XXXXooooooooooooOOOOOOOOoooooooo    ....................    ooooOOOO........@@@@@@@@                    ....",
"....############@@@@XXXXooooooooooooOOOOOOOOoooooooo    ....................    ooooOOOO........@@@@@@@@                    ....",
"....############@@@@XXXXooooooooooooOOOOOOOOoooooooo    ....................    ooooOOOO........@@@@@@@@                    ....",
"....@@@@########@@@@@@@@XXXXooooOOOOoooo        ....@@@@########@@@@............    oooo....    ....@@@@                        ",
"....@@@@########@@@@@@@@XXXXooooOOOOoooo        ....@@@@########@@@@............    oooo....    ....@@@@                        ",
"....@@@@########@@@@@@@@XXXXooooOOOOoooo        ....@@@@########@@@@............    oooo....    ....@@@@                        ",
"....@@@@########@@@@@@@@XXXXooooOOOOoooo        ....@@@@########@@@@............    oooo....    ....@@@@                        ",
"....########@@@@@@@@@@@@....OOOO++++    ....@@@@########@@@@....                    oooo                ....                    ",
"....########@@@@@@@@@@@@....OOOO++++    ....@@@@########@@@@....                    oooo                ....                    ",
"....########@@@@@@@@@@@@....OOOO++++    ....@@@@########@@@@....                    oooo                ....                    ",
"....########@@@@@@@@@@@@....OOOO++++    ....@@@@########@@@@....                    oooo                ....                    ",
"@@@@####@@@@@@@@@@@@....@@@@++++OOOO....@@@@####@@@@....                    ........oooo                ....                    ",
"@@@@####@@@@@@@@@@@@....@@@@++++OOOO....@@@@####@@@@....                    ........oooo                ....                    ",
"@@@@####@@@@@@@@@@@@....@@@@++++OOOO....@@@@####@@@@....                    ........oooo                ....                    ",
"@@@@####@@@@@@@@@@@@....@@@@++++OOOO....@@@@####@@@@....                    ........oooo                ....                    ",
"@@@@@@@@@@@@....    ....@@@@++++oooo@@@@@@@@        ........            ........    oooooooo                                ....",
"@@@@@@@@@@@@....    ....@@@@++++oooo@@@@@@@@        ........            ........    oooooooo                                ....",
"@@@@@@@@@@@@....    ....@@@@++++oooo@@@@@@@@        ........            ........    oooooooo                                ....",
"@@@@@@@@@@@@....    ....@@@@++++oooo@@@@@@@@        ........            ........    oooooooo                                ....",
"                        @@@@OOOO    @@@@....                    ............    ooooOOOOOOOOOOOOoooo                ....@@@@....",
"                        @@@@OOOO    @@@@....                    ............    ooooOOOOOOOOOOOOoooo                ....@@@@....",
"                        @@@@OOOO    @@@@....                    ............    ooooOOOOOOOOOOOOoooo                ....@@@@....",
"                        @@@@OOOO    @@@@....                    ............    ooooOOOOOOOOOOOOoooo                ....@@@@...."
};
