/* XPM */
static char *_11841f86a5f4b25b35c945ca5647ce1E7RC7h1gCfoOmtVN[] = {
/* columns rows colors chars-per-pixel */
"128 128 7 1 ",
"  c #18101C",
". c #273973",
"X c #306C99",
"o c #2CF1EF",
"O c #8F9DB0",
"+ c #BEC7D2",
"@ c #E6EBEC",
/* pixels */
"@@@@@@@@@@@@@@@@@@@@@@@@@@@@@@@@@@@@@@@@@@@@@@@@++++XXXX++++@@@@@@@@@@@@@@@@@@@@@@@@@@@@@@@@@@@@@@@@@@@@@@@@@@@@@@@@@@@@@@@@@@@@",
"@@@@@@@@@@@@@@@@@@@@@@@@@@@@@@@@@@@@@@@@@@@@@@@@++++XXXX++++@@@@@@@@@@@@@@@@@@@@@@@@@@@@@@@@@@@@@@@@@@@@@@@@@@@@@@@@@@@@@@@@@@@@",
"@@@@@@@@@@@@@@@@@@@@@@@@@@@@@@@@@@@@@@@@@@@@@@@@++++XXXX++++@@@@@@@@@@@@@@@@@@@@@@@@@@@@@@@@@@@@@@@@@@@@@@@@@@@@@@@@@@@@@@@@@@@@",
"@@@@@@@@@@@@@@@@@@@@@@@@@@@@@@@@@@@@@@@@@@@@@@@@++++XXXX++++@@@@@@@@@@@@@@@@@@@@@@@@@@@@@@@@@@@@@@@@@@@@@@@@@@@@@@@@@@@@@@@@@@@@",
"++++++++++++++++++++++++++++++++++++++++++++++++++++XXXX++++++++++++++++++++++++++++++++++++++++++++++++++++++++++++++++++++++++",
"++++++++++++++++++++++++++++++++++++++++++++++++++++XXXX++++++++++++++++++++++++++++++++++++++++++++++++++++++++++++++++++++++++",
"++++++++++++++++++++++++++++++++++++++++++++++++++++XXXX++++++++++++++++++++++++++++++++++++++++++++++++++++++++++++++++++++++++",
"++++++++++++++++++++++++++++++++++++++++++++++++++++XXXX++++++++++++++++++++++++++++++++++++++++++++++++++++++++++++++++++++++++",
"OOOOOOOOOOOOOOOOOOOOXXXX....OOOOOOOOOOOOOOOOOOOO++++XXXX....OOOOOOOOOOOOOOOOOOOOOOOOOOOOOOOOOOOO++++XXXX....OOOOOOOOOOOOOOOOOOOO",
"OOOOOOOOOOOOOOOOOOOOXXXX....OOOOOOOOOOOOOOOOOOOO++++XXXX....OOOOOOOOOOOOOOOOOOOOOOOOOOOOOOOOOOOO++++XXXX....OOOOOOOOOOOOOOOOOOOO",
"OOOOOOOOOOOOOOOOOOOOXXXX....OOOOOOOOOOOOOOOOOOOO++++XXXX....OOOOOOOOOOOOOOOOOOOOOOOOOOOOOOOOOOOO++++XXXX....OOOOOOOOOOOOOOOOOOOO",
"OOOOOOOOOOOOOOOOOOOOXXXX....OOOOOOOOOOOOOOOOOOOO++++XXXX....OOOOOOOOOOOOOOOOOOOOOOOOOOOOOOOOOOOO++++XXXX....OOOOOOOOOOOOOOOOOOOO",
"OOOOOOOOOOOOOOOOOOOOXXXX....OOOOOOOOOOOOOOOOOOOO++++XXXX....ooooOOOOXXXXOOOOOOOOOOOOOOOOOOOOOOOO++++XXXX....OOOOOOOOOOOOOOOOOOOO",
"OOOOOOOOOOOOOOOOOOOOXXXX....OOOOOOOOOOOOOOOOOOOO++++XXXX....ooooOOOOXXXXOOOOOOOOOOOOOOOOOOOOOOOO++++XXXX....OOOOOOOOOOOOOOOOOOOO",
"OOOOOOOOOOOOOOOOOOOOXXXX....OOOOOOOOOOOOOOOOOOOO++++XXXX....ooooOOOOXXXXOOOOOOOOOOOOOOOOOOOOOOOO++++XXXX....OOOOOOOOOOOOOOOOOOOO",
"OOOOOOOOOOOOOOOOOOOOXXXX....OOOOOOOOOOOOOOOOOOOO++++XXXX....ooooOOOOXXXXOOOOOOOOOOOOOOOOOOOOOOOO++++XXXX....OOOOOOOOOOOOOOOOOOOO",
"OOOOOOOOOOOOOOOOOOOOXXXX....OOOOOOOOOOOOOOOOOOOO++++XXXX....XXXXOOOOOOOOOOOOOOOOOOOOOOOOOOOOOOOO++++XXXX....OOOOOOOOOOOOOOOOOOOO",
"OOOOOOOOOOOOOOOOOOOOXXXX....OOOOOOOOOOOOOOOOOOOO++++XXXX....XXXXOOOOOOOOOOOOOOOOOOOOOOOOOOOOOOOO++++XXXX....OOOOOOOOOOOOOOOOOOOO",
"OOOOOOOOOOOOOOOOOOOOXXXX....OOOOOOOOOOOOOOOOOOOO++++XXXX....XXXXOOOOOOOOOOOOOOOOOOOOOOOOOOOOOOOO++++XXXX....OOOOOOOOOOOOOOOOOOOO",
"OOOOOOOOOOOOOOOOOOOOXXXX....OOOOOOOOOOOOOOOOOOOO++++XXXX....XXXXOOOOOOOOOOOOOOOOOOOOOOOOOOOOOOOO++++XXXX....OOOOOOOOOOOOOOOOOOOO",
"OOOOOOOOOOOOOOOOOOOOXXXX....OOOOOOOOOOOOOOOOOOOO++++XXXX....OOOOOOOOOOOOOOOOOOOOOOOOOOOOOOOOOOOO++++XXXX....OOOOOOOOOOOOOOOOOOOO",
"OOOOOOOOOOOOOOOOOOOOXXXX....OOOOOOOOOOOOOOOOOOOO++++XXXX....OOOOOOOOOOOOOOOOOOOOOOOOOOOOOOOOOOOO++++XXXX....OOOOOOOOOOOOOOOOOOOO",
"OOOOOOOOOOOOOOOOOOOOXXXX....OOOOOOOOOOOOOOOOOOOO++++XXXX....OOOOOOOOOOOOOOOOOOOOOOOOOOOOOOOOOOOO++++XXXX....OOOOOOOOOOOOOOOOOOOO",
"OOOOOOOOOOOOOOOOOOOOXXXX....OOOOOOOOOOOOOOOOOOOO++++XXXX....OOOOOOOOOOOOOOOOOOOOOOOOOOOOOOOOOOOO++++XXXX....OOOOOOOOOOOOOOOOOOOO",
"XXXXXXXXXXXXXXXXXXXXXXXX....OOOOOOOOOOOOOOOOOOOO++++XXXX....OOOOOOOOOOOOOOOOOOOOOOOOOOOOOOOOOOOO++++XXXXXXXXXXXXXXXXXXXXXXXXXXXX",
"XXXXXXXXXXXXXXXXXXXXXXXX....OOOOOOOOOOOOOOOOOOOO++++XXXX....OOOOOOOOOOOOOOOOOOOOOOOOOOOOOOOOOOOO++++XXXXXXXXXXXXXXXXXXXXXXXXXXXX",
"XXXXXXXXXXXXXXXXXXXXXXXX....OOOOOOOOOOOOOOOOOOOO++++XXXX....OOOOOOOOOOOOOOOOOOOOOOOOOOOOOOOOOOOO++++XXXXXXXXXXXXXXXXXXXXXXXXXXXX",
"XXXXXXXXXXXXXXXXXXXXXXXX....OOOOOOOOOOOOOOOOOOOO++++XXXX....OOOOOOOOOOOOOOOOOOOOOOOOOOOOOOOOOOOO++++XXXXXXXXXXXXXXXXXXXXXXXXXXXX",
"....................XXXX....OOOOOOOOOOOOOOOOOOOO++++XXXX....OOOOOOOOOOOOOOOOOOOOOOOOOOOOOOOOOOOO++++............................",
"....................XXXX....OOOOOOOOOOOOOOOOOOOO++++XXXX....OOOOOOOOOOOOOOOOOOOOOOOOOOOOOOOOOOOO++++............................",
"....................XXXX....OOOOOOOOOOOOOOOOOOOO++++XXXX....OOOOOOOOOOOOOOOOOOOOOOOOOOOOOOOOOOOO++++............................",
"....................XXXX....OOOOOOOOOOOOOOOOOOOO++++XXXX....OOOOOOOOOOOOOOOOOOOOOOOOOOOOOOOOOOOO++++............................",
"OOOOOOOOOOOOOOOO++++XXXX....OOOOOOOOOOOOOOOOOOOO++++XXXX....OOOOOOOOOOOOOOOOOOOOOOOOOOOOOOOOOOOOOOOOOOOOOOOOOOOOOOOOOOOOOOOOOOOO",
"OOOOOOOOOOOOOOOO++++XXXX....OOOOOOOOOOOOOOOOOOOO++++XXXX....OOOOOOOOOOOOOOOOOOOOOOOOOOOOOOOOOOOOOOOOOOOOOOOOOOOOOOOOOOOOOOOOOOOO",
"OOOOOOOOOOOOOOOO++++XXXX....OOOOOOOOOOOOOOOOOOOO++++XXXX....OOOOOOOOOOOOOOOOOOOOOOOOOOOOOOOOOOOOOOOOOOOOOOOOOOOOOOOOOOOOOOOOOOOO",
"OOOOOOOOOOOOOOOO++++XXXX....OOOOOOOOOOOOOOOOOOOO++++XXXX....OOOOOOOOOOOOOOOOOOOOOOOOOOOOOOOOOOOOOOOOOOOOOOOOOOOOOOOOOOOOOOOOOOOO",
"OOOOOOOOOOOOOOOO++++XXXX....OOOOOOOOOOOOOOOOOOOO++++XXXX....OOOOOOOOOOOOOOOOOOOOOOOOOOOOOOOOOOOOOOOOOOOOOOOOOOOOOOOOOOOOOOOOOOOO",
"OOOOOOOOOOOOOOOO++++XXXX....OOOOOOOOOOOOOOOOOOOO++++XXXX....OOOOOOOOOOOOOOOOOOOOOOOOOOOOOOOOOOOOOOOOOOOOOOOOOOOOOOOOOOOOOOOOOOOO",
"OOOOOOOOOOOOOOOO++++XXXX....OOOOOOOOOOOOOOOOOOOO++++XXXX....OOOOOOOOOOOOOOOOOOOOOOOOOOOOOOOOOOOOOOOOOOOOOOOOOOOOOOOOOOOOOOOOOOOO",
"OOOOOOOOOOOOOOOO++++XXXX....OOOOOOOOOOOOOOOOOOOO++++XXXX....OOOOOOOOOOOOOOOOOOOOOOOOOOOOOOOOOOOOOOOOOOOOOOOOOOOOOOOOOOOOOOOOOOOO",
"OOOOOOOOOOOOOOOO++++XXXXXXXXXXXXXXXXXXXXXXXXXXXX++++XXXX....OOOOOOOOOOOOOOOOOOOOOOOOOOOOOOOOOOOOOOOOOOOOOOOOOOOOOOOOOOOOOOOOOOOO",
"OOOOOOOOOOOOOOOO++++XXXXXXXXXXXXXXXXXXXXXXXXXXXX++++XXXX....OOOOOOOOOOOOOOOOOOOOOOOOOOOOOOOOOOOOOOOOOOOOOOOOOOOOOOOOOOOOOOOOOOOO",
"OOOOOOOOOOOOOOOO++++XXXXXXXXXXXXXXXXXXXXXXXXXXXX++++XXXX....OOOOOOOOOOOOOOOOOOOOOOOOOOOOOOOOOOOOOOOOOOOOOOOOOOOOOOOOOOOOOOOOOOOO",
"OOOOOOOOOOOOOOOO++++XXXXXXXXXXXXXXXXXXXXXXXXXXXX++++XXXX....OOOOOOOOOOOOOOOOOOOOOOOOOOOOOOOOOOOOOOOOOOOOOOOOOOOOOOOOOOOOOOOOOOOO",
"OOOOOOOOOOOOOOOO++++XXXX........................++++XXXX....OOOOOOOOOOOOOOOOOOOOOOOOOOOOOOOOOOOOOOOOOOOOOOOOOOOOOOOOOOOOOOOOOOOO",
"OOOOOOOOOOOOOOOO++++XXXX........................++++XXXX....OOOOOOOOOOOOOOOOOOOOOOOOOOOOOOOOOOOOOOOOOOOOOOOOOOOOOOOOOOOOOOOOOOOO",
"OOOOOOOOOOOOOOOO++++XXXX........................++++XXXX....OOOOOOOOOOOOOOOOOOOOOOOOOOOOOOOOOOOOOOOOOOOOOOOOOOOOOOOOOOOOOOOOOOOO",
"OOOOOOOOOOOOOOOO++++XXXX........................++++XXXX....OOOOOOOOOOOOOOOOOOOOOOOOOOOOOOOOOOOOOOOOOOOOOOOOOOOOOOOOOOOOOOOOOOOO",
"++++OOOOOOOOOOOO++++XXXX....OOOOOOOOOOOOOOOOOOOO++++XXXX....OOOOOOOO++++@@@@@@@@@@@@@@@@@@@@@@@@@@@@@@@@@@@@@@@@@@@@@@@@@@@@@@@@",
"++++OOOOOOOOOOOO++++XXXX....OOOOOOOOOOOOOOOOOOOO++++XXXX....OOOOOOOO++++@@@@@@@@@@@@@@@@@@@@@@@@@@@@@@@@@@@@@@@@@@@@@@@@@@@@@@@@",
"++++OOOOOOOOOOOO++++XXXX....OOOOOOOOOOOOOOOOOOOO++++XXXX....OOOOOOOO++++@@@@@@@@@@@@@@@@@@@@@@@@@@@@@@@@@@@@@@@@@@@@@@@@@@@@@@@@",
"++++OOOOOOOOOOOO++++XXXX....OOOOOOOOOOOOOOOOOOOO++++XXXX....OOOOOOOO++++@@@@@@@@@@@@@@@@@@@@@@@@@@@@@@@@@@@@@@@@@@@@@@@@@@@@@@@@",
"XXXXOOOOOOOOOOOO++++XXXX....OOOOOOOOOOOOOOOOOOOO++++XXXX....OOOO++++XXXXXXXXXXXXXXXXXXXXXXXXXXXXXXXXXXXXXXXXXXXXXXXXXXXXXXXXXXXX",
"XXXXOOOOOOOOOOOO++++XXXX....OOOOOOOOOOOOOOOOOOOO++++XXXX....OOOO++++XXXXXXXXXXXXXXXXXXXXXXXXXXXXXXXXXXXXXXXXXXXXXXXXXXXXXXXXXXXX",
"XXXXOOOOOOOOOOOO++++XXXX....OOOOOOOOOOOOOOOOOOOO++++XXXX....OOOO++++XXXXXXXXXXXXXXXXXXXXXXXXXXXXXXXXXXXXXXXXXXXXXXXXXXXXXXXXXXXX",
"XXXXOOOOOOOOOOOO++++XXXX....OOOOOOOOOOOOOOOOOOOO++++XXXX....OOOO++++XXXXXXXXXXXXXXXXXXXXXXXXXXXXXXXXXXXXXXXXXXXXXXXXXXXXXXXXXXXX",
"XXXXOOOOOOOOOOOO++++XXXX....OOOOOOOOOOOOOOOOOOOO++++XXXX....++++XXXX                                                            ",
"XXXXOOOOOOOOOOOO++++XXXX....OOOOOOOOOOOOOOOOOOOO++++XXXX....++++XXXX                                                            ",
"XXXXOOOOOOOOOOOO++++XXXX....OOOOOOOOOOOOOOOOOOOO++++XXXX....++++XXXX                                                            ",
"XXXXOOOOOOOOOOOO++++XXXX....OOOOOOOOOOOOOOOOOOOO++++XXXX....++++XXXX                                                            ",
"XXXXOOOOOOOOOOOO++++XXXX....OOOOOOOOOOOOOOOOOOOO++++XXXX++++XXXX                                                                ",
"XXXXOOOOOOOOOOOO++++XXXX....OOOOOOOOOOOOOOOOOOOO++++XXXX++++XXXX                                                                ",
"XXXXOOOOOOOOOOOO++++XXXX....OOOOOOOOOOOOOOOOOOOO++++XXXX++++XXXX                                                                ",
"XXXXOOOOOOOOOOOO++++XXXX....OOOOOOOOOOOOOOOOOOOO++++XXXX++++XXXX                                                                ",
"XXXX++++@@@@@@@@@@@@@@@@@@@@@@@@@@@@@@@@@@@@++++++++XXXXXXXX            XXXXXXXXXXXXXXXXXXXXXXXXXXXXXXXXXXXXXXXXXXXXXXXXXXXXXXXX",
"XXXX++++@@@@@@@@@@@@@@@@@@@@@@@@@@@@@@@@@@@@++++++++XXXXXXXX            XXXXXXXXXXXXXXXXXXXXXXXXXXXXXXXXXXXXXXXXXXXXXXXXXXXXXXXX",
"XXXX++++@@@@@@@@@@@@@@@@@@@@@@@@@@@@@@@@@@@@++++++++XXXXXXXX            XXXXXXXXXXXXXXXXXXXXXXXXXXXXXXXXXXXXXXXXXXXXXXXXXXXXXXXX",
"XXXX++++@@@@@@@@@@@@@@@@@@@@@@@@@@@@@@@@@@@@++++++++XXXXXXXX            XXXXXXXXXXXXXXXXXXXXXXXXXXXXXXXXXXXXXXXXXXXXXXXXXXXXXXXX",
"XXXXXXXXXXXXXXXXXXXXXXXXXXXXXXXXXXXXXXXXXXXXXXXXXXXXXXXX            XXXXXXXX................XXXX........................++++XXXX",
"XXXXXXXXXXXXXXXXXXXXXXXXXXXXXXXXXXXXXXXXXXXXXXXXXXXXXXXX            XXXXXXXX................XXXX........................++++XXXX",
"XXXXXXXXXXXXXXXXXXXXXXXXXXXXXXXXXXXXXXXXXXXXXXXXXXXXXXXX            XXXXXXXX................XXXX........................++++XXXX",
"XXXXXXXXXXXXXXXXXXXXXXXXXXXXXXXXXXXXXXXXXXXXXXXXXXXXXXXX            XXXXXXXX................XXXX........................++++XXXX",
"                                                                XXXX++++XXXX....OOOOOOOO++++XXXX....OOOOOOOOOOOOOOOOOOOO++++XXXX",
"                                                                XXXX++++XXXX....OOOOOOOO++++XXXX....OOOOOOOOOOOOOOOOOOOO++++XXXX",
"                                                                XXXX++++XXXX....OOOOOOOO++++XXXX....OOOOOOOOOOOOOOOOOOOO++++XXXX",
"                                                                XXXX++++XXXX....OOOOOOOO++++XXXX....OOOOOOOOOOOOOOOOOOOO++++XXXX",
"                                                            XXXX....++++XXXX....OOOOOOOO++++XXXX....OOOOOOOOOOOOOOOOOOOO++++XXXX",
"                                                            XXXX....++++XXXX....OOOOOOOO++++XXXX....OOOOOOOOOOOOOOOOOOOO++++XXXX",
"                                                            XXXX....++++XXXX....OOOOOOOO++++XXXX....OOOOOOOOOOOOOOOOOOOO++++XXXX",
"                                                            XXXX....++++XXXX....OOOOOOOO++++XXXX....OOOOOOOOOOOOOOOOOOOO++++XXXX",
"XXXXXXXXXXXXXXXXXXXXXXXXXXXXXXXXXXXXXXXXXXXXXXXXXXXXXXXXXXXX....OOOO++++XXXX....OOOOOOOO++++XXXX....OOOOOOOOOOOOOOOOOOOO++++XXXX",
"XXXXXXXXXXXXXXXXXXXXXXXXXXXXXXXXXXXXXXXXXXXXXXXXXXXXXXXXXXXX....OOOO++++XXXX....OOOOOOOO++++XXXX....OOOOOOOOOOOOOOOOOOOO++++XXXX",
"XXXXXXXXXXXXXXXXXXXXXXXXXXXXXXXXXXXXXXXXXXXXXXXXXXXXXXXXXXXX....OOOO++++XXXX....OOOOOOOO++++XXXX....OOOOOOOOOOOOOOOOOOOO++++XXXX",
"XXXXXXXXXXXXXXXXXXXXXXXXXXXXXXXXXXXXXXXXXXXXXXXXXXXXXXXXXXXX....OOOO++++XXXX....OOOOOOOO++++XXXX....OOOOOOOOOOOOOOOOOOOO++++XXXX",
"........................XXXX................................OOOOOOOO++++XXXX....OOOOOOOO++++XXXX....OOOOOOOOOOOOOOOOOOOO++++....",
"........................XXXX................................OOOOOOOO++++XXXX....OOOOOOOO++++XXXX....OOOOOOOOOOOOOOOOOOOO++++....",
"........................XXXX................................OOOOOOOO++++XXXX....OOOOOOOO++++XXXX....OOOOOOOOOOOOOOOOOOOO++++....",
"........................XXXX................................OOOOOOOO++++XXXX....OOOOOOOO++++XXXX....OOOOOOOOOOOOOOOOOOOO++++....",
"OOOOOOOOOOOOOOOOOOOO++++XXXX....OOOOOOOOOOOOOOOOOOOOOOOOOOOOOOOOOOOO++++XXXXXXXXXXXXXXXXXXXXXXXXXXXXXXXXOOOOOOOOOOOOOOOOOOOOOOOO",
"OOOOOOOOOOOOOOOOOOOO++++XXXX....OOOOOOOOOOOOOOOOOOOOOOOOOOOOOOOOOOOO++++XXXXXXXXXXXXXXXXXXXXXXXXXXXXXXXXOOOOOOOOOOOOOOOOOOOOOOOO",
"OOOOOOOOOOOOOOOOOOOO++++XXXX....OOOOOOOOOOOOOOOOOOOOOOOOOOOOOOOOOOOO++++XXXXXXXXXXXXXXXXXXXXXXXXXXXXXXXXOOOOOOOOOOOOOOOOOOOOOOOO",
"OOOOOOOOOOOOOOOOOOOO++++XXXX....OOOOOOOOOOOOOOOOOOOOOOOOOOOOOOOOOOOO++++XXXXXXXXXXXXXXXXXXXXXXXXXXXXXXXXOOOOOOOOOOOOOOOOOOOOOOOO",
"OOOOOOOOOOOOOOOOOOOO++++XXXX....OOOOOOOOOOOOOOOOOOOOOOOOOOOOOOOOOOOO++++XXXX............................XXXXOOOOOOOOOOOOOOOOOOOO",
"OOOOOOOOOOOOOOOOOOOO++++XXXX....OOOOOOOOOOOOOOOOOOOOOOOOOOOOOOOOOOOO++++XXXX............................XXXXOOOOOOOOOOOOOOOOOOOO",
"OOOOOOOOOOOOOOOOOOOO++++XXXX....OOOOOOOOOOOOOOOOOOOOOOOOOOOOOOOOOOOO++++XXXX............................XXXXOOOOOOOOOOOOOOOOOOOO",
"OOOOOOOOOOOOOOOOOOOO++++XXXX....OOOOOOOOOOOOOOOOOOOOOOOOOOOOOOOOOOOO++++XXXX............................XXXXOOOOOOOOOOOOOOOOOOOO",
"OOOOOOOOOOOOOOOOOOOO++++XXXX....OOOOOOOOOOOOOOOOOOOOOOOOOOOOOOOOOOOO++++XXXX....OOOOOOOOOOOOOOOOOOOOOOOO....XXXXOOOOOOOOOOOOOOOO",
"OOOOOOOOOOOOOOOOOOOO++++XXXX....OOOOOOOOOOOOOOOOOOOOOOOOOOOOOOOOOOOO++++XXXX....OOOOOOOOOOOOOOOOOOOOOOOO....XXXXOOOOOOOOOOOOOOOO",
"OOOOOOOOOOOOOOOOOOOO++++XXXX....OOOOOOOOOOOOOOOOOOOOOOOOOOOOOOOOOOOO++++XXXX....OOOOOOOOOOOOOOOOOOOOOOOO....XXXXOOOOOOOOOOOOOOOO",
"OOOOOOOOOOOOOOOOOOOO++++XXXX....OOOOOOOOOOOOOOOOOOOOOOOOOOOOOOOOOOOO++++XXXX....OOOOOOOOOOOOOOOOOOOOOOOO....XXXXOOOOOOOOOOOOOOOO",
"OOOOOOOOOOOOOOOOOOOO++++XXXX....OOOOOOOOOOOOOOOOOOOOOOOOOOOOOOOOOOOO++++XXXX....OOOOOOOOOOOOOOOOOOOOOOOOOOOO....XXXXOOOOOOOOOOOO",
"OOOOOOOOOOOOOOOOOOOO++++XXXX....OOOOOOOOOOOOOOOOOOOOOOOOOOOOOOOOOOOO++++XXXX....OOOOOOOOOOOOOOOOOOOOOOOOOOOO....XXXXOOOOOOOOOOOO",
"OOOOOOOOOOOOOOOOOOOO++++XXXX....OOOOOOOOOOOOOOOOOOOOOOOOOOOOOOOOOOOO++++XXXX....OOOOOOOOOOOOOOOOOOOOOOOOOOOO....XXXXOOOOOOOOOOOO",
"OOOOOOOOOOOOOOOOOOOO++++XXXX....OOOOOOOOOOOOOOOOOOOOOOOOOOOOOOOOOOOO++++XXXX....OOOOOOOOOOOOOOOOOOOOOOOOOOOO....XXXXOOOOOOOOOOOO",
"XXXXXXXXXXXXXXXXXXXXXXXXXXXXXXXXXXXXXXXXXXXXXXXXXXXXXXXXXXXXXXXXXXXX++++XXXX....OOOOOOOOOOOOOOOOOOOOOOOOOOOOOOOO....XXXXXXXXXXXX",
"XXXXXXXXXXXXXXXXXXXXXXXXXXXXXXXXXXXXXXXXXXXXXXXXXXXXXXXXXXXXXXXXXXXX++++XXXX....OOOOOOOOOOOOOOOOOOOOOOOOOOOOOOOO....XXXXXXXXXXXX",
"XXXXXXXXXXXXXXXXXXXXXXXXXXXXXXXXXXXXXXXXXXXXXXXXXXXXXXXXXXXXXXXXXXXX++++XXXX....OOOOOOOOOOOOOOOOOOOOOOOOOOOOOOOO....XXXXXXXXXXXX",
"XXXXXXXXXXXXXXXXXXXXXXXXXXXXXXXXXXXXXXXXXXXXXXXXXXXXXXXXXXXXXXXXXXXX++++XXXX....OOOOOOOOOOOOOOOOOOOOOOOOOOOOOOOO....XXXXXXXXXXXX",
"........XXXX........................................................++++XXXX....OOOOOOOOOOOOOOOOOOOOOOOOOOOOOOOOOOOO............",
"........XXXX........................................................++++XXXX....OOOOOOOOOOOOOOOOOOOOOOOOOOOOOOOOOOOO............",
"........XXXX........................................................++++XXXX....OOOOOOOOOOOOOOOOOOOOOOOOOOOOOOOOOOOO............",
"........XXXX........................................................++++XXXX....OOOOOOOOOOOOOOOOOOOOOOOOOOOOOOOOOOOO............",
"OOOO++++XXXX....OOOOOOOOOOOOOOOOOOOOOOOOooooOOOOooooOOOOooooOOOOOOOO++++XXXX....OOOOOOOOOOOOOOOOOOOOOOOOOOOOOOOOOOOOOOOOOOOOOOOO",
"OOOO++++XXXX....OOOOOOOOOOOOOOOOOOOOOOOOooooOOOOooooOOOOooooOOOOOOOO++++XXXX....OOOOOOOOOOOOOOOOOOOOOOOOOOOOOOOOOOOOOOOOOOOOOOOO",
"OOOO++++XXXX....OOOOOOOOOOOOOOOOOOOOOOOOooooOOOOooooOOOOooooOOOOOOOO++++XXXX....OOOOOOOOOOOOOOOOOOOOOOOOOOOOOOOOOOOOOOOOOOOOOOOO",
"OOOO++++XXXX....OOOOOOOOOOOOOOOOOOOOOOOOooooOOOOooooOOOOooooOOOOOOOO++++XXXX....OOOOOOOOOOOOOOOOOOOOOOOOOOOOOOOOOOOOOOOOOOOOOOOO",
"OOOO++++XXXX....OOOOOOOOOOOOOOOOOOOOOOOOOOOOOOOOOOOOOOOOOOOOOOOOOOOO++++XXXX....OOOOOOOOOOOOOOOOOOOOOOOOOOOOOOOOOOOOOOOOOOOOOOOO",
"OOOO++++XXXX....OOOOOOOOOOOOOOOOOOOOOOOOOOOOOOOOOOOOOOOOOOOOOOOOOOOO++++XXXX....OOOOOOOOOOOOOOOOOOOOOOOOOOOOOOOOOOOOOOOOOOOOOOOO",
"OOOO++++XXXX....OOOOOOOOOOOOOOOOOOOOOOOOOOOOOOOOOOOOOOOOOOOOOOOOOOOO++++XXXX....OOOOOOOOOOOOOOOOOOOOOOOOOOOOOOOOOOOOOOOOOOOOOOOO",
"OOOO++++XXXX....OOOOOOOOOOOOOOOOOOOOOOOOOOOOOOOOOOOOOOOOOOOOOOOOOOOO++++XXXX....OOOOOOOOOOOOOOOOOOOOOOOOOOOOOOOOOOOOOOOOOOOOOOOO",
"OOOO++++XXXX....OOOOOOOOOOOOOOOOOOOOOOOOOOOOOOOOOOOOOOOOOOOOOOOOOOOO++++XXXX....OOOOOOOOOOOOOOOOOOOOOOOOOOOOOOOOOOOOOOOOOOOOOOOO",
"OOOO++++XXXX....OOOOOOOOOOOOOOOOOOOOOOOOOOOOOOOOOOOOOOOOOOOOOOOOOOOO++++XXXX....OOOOOOOOOOOOOOOOOOOOOOOOOOOOOOOOOOOOOOOOOOOOOOOO",
"OOOO++++XXXX....OOOOOOOOOOOOOOOOOOOOOOOOOOOOOOOOOOOOOOOOOOOOOOOOOOOO++++XXXX....OOOOOOOOOOOOOOOOOOOOOOOOOOOOOOOOOOOOOOOOOOOOOOOO",
"OOOO++++XXXX....OOOOOOOOOOOOOOOOOOOOOOOOOOOOOOOOOOOOOOOOOOOOOOOOOOOO++++XXXX....OOOOOOOOOOOOOOOOOOOOOOOOOOOOOOOOOOOOOOOOOOOOOOOO",
"XXXXXXXXXXXXXXXXXXXXXXXXXXXXXXXXXXXXXXXXXXXXXXXXXXXXXXXXXXXXXXXXXXXXXXXXXXXXXXXXXXXXXXXXXXXXXXXXXXXXXXXXXXXXXXXXXXXXXXXXXXXXXXXX",
"XXXXXXXXXXXXXXXXXXXXXXXXXXXXXXXXXXXXXXXXXXXXXXXXXXXXXXXXXXXXXXXXXXXXXXXXXXXXXXXXXXXXXXXXXXXXXXXXXXXXXXXXXXXXXXXXXXXXXXXXXXXXXXXX",
"XXXXXXXXXXXXXXXXXXXXXXXXXXXXXXXXXXXXXXXXXXXXXXXXXXXXXXXXXXXXXXXXXXXXXXXXXXXXXXXXXXXXXXXXXXXXXXXXXXXXXXXXXXXXXXXXXXXXXXXXXXXXXXXX",
"XXXXXXXXXXXXXXXXXXXXXXXXXXXXXXXXXXXXXXXXXXXXXXXXXXXXXXXXXXXXXXXXXXXXXXXXXXXXXXXXXXXXXXXXXXXXXXXXXXXXXXXXXXXXXXXXXXXXXXXXXXXXXXXX"
};
