/* XPM */
static char *f2b5ff1f94084c5ed63d155933dbaf51d5ZoxyEuWXVStjJ3[] = {
/* columns rows colors chars-per-pixel */
"128 128 8 1 ",
"  c #18101C",
". c #142F4E",
"X c #273973",
"o c #306C99",
"O c #2CF1EF",
"+ c #8F9DB0",
"@ c #BEC7D2",
"# c #E6EBEC",
/* pixels */
"################################################@@@@oooo@@@@####################################################################",
"################################################@@@@oooo@@@@####################################################################",
"################################################@@@@oooo@@@@####################################################################",
"################################################@@@@oooo@@@@####################################################################",
"@@@@@@@@@@@@@@@@@@@@@@@@@@@@@@@@@@@@@@@@@@@@@@@@@@@@oooo@@@@@@@@@@@@@@@@@@@@@@@@@@@@@@@@@@@@@@@@@@@@@@@@@@@@@@@@@@@@@@@@@@@@@@@@",
"@@@@@@@@@@@@@@@@@@@@@@@@@@@@@@@@@@@@@@@@@@@@@@@@@@@@oooo@@@@@@@@@@@@@@@@@@@@@@@@@@@@@@@@@@@@@@@@@@@@@@@@@@@@@@@@@@@@@@@@@@@@@@@@",
"@@@@@@@@@@@@@@@@@@@@@@@@@@@@@@@@@@@@@@@@@@@@@@@@@@@@oooo@@@@@@@@@@@@@@@@@@@@@@@@@@@@@@@@@@@@@@@@@@@@@@@@@@@@@@@@@@@@@@@@@@@@@@@@",
"@@@@@@@@@@@@@@@@@@@@@@@@@@@@@@@@@@@@@@@@@@@@@@@@@@@@oooo@@@@@@@@@@@@@@@@@@@@@@@@@@@@@@@@@@@@@@@@@@@@@@@@@@@@@@@@@@@@@@@@@@@@@@@@",
"++++++++++++++++++++ooooXXXX++++++++++++++++++++@@@@ooooXXXX++++++++++++++++++++++++++++++++++++@@@@ooooXXXX++++++++++++++++++++",
"++++++++++++++++++++ooooXXXX++++++++++++++++++++@@@@ooooXXXX++++++++++++++++++++++++++++++++++++@@@@ooooXXXX++++++++++++++++++++",
"++++++++++++++++++++ooooXXXX++++++++++++++++++++@@@@ooooXXXX++++++++++++++++++++++++++++++++++++@@@@ooooXXXX++++++++++++++++++++",
"++++++++++++++++++++ooooXXXX++++++++++++++++++++@@@@ooooXXXX++++++++++++++++++++++++++++++++++++@@@@ooooXXXX++++++++++++++++++++",
"++++++++++++++++++++ooooXXXX++++++++++++++++++++@@@@ooooXXXXOOOO++++oooo++++++++++++++++++++++++@@@@ooooXXXX++++++++++++++++++++",
"++++++++++++++++++++ooooXXXX++++++++++++++++++++@@@@ooooXXXXOOOO++++oooo++++++++++++++++++++++++@@@@ooooXXXX++++++++++++++++++++",
"++++++++++++++++++++ooooXXXX++++++++++++++++++++@@@@ooooXXXXOOOO++++oooo++++++++++++++++++++++++@@@@ooooXXXX++++++++++++++++++++",
"++++++++++++++++++++ooooXXXX++++++++++++++++++++@@@@ooooXXXXOOOO++++oooo++++++++++++++++++++++++@@@@ooooXXXX++++++++++++++++++++",
"++++++++++++++++++++ooooXXXX++++++++++++++++++++@@@@ooooXXXXoooo++++++++++++++++++++++++++++++++@@@@ooooXXXX++++++++++++++++++++",
"++++++++++++++++++++ooooXXXX++++++++++++++++++++@@@@ooooXXXXoooo++++++++++++++++++++++++++++++++@@@@ooooXXXX++++++++++++++++++++",
"++++++++++++++++++++ooooXXXX++++++++++++++++++++@@@@ooooXXXXoooo++++++++++++++++++++++++++++++++@@@@ooooXXXX++++++++++++++++++++",
"++++++++++++++++++++ooooXXXX++++++++++++++++++++@@@@ooooXXXXoooo++++++++++++++++++++++++++++++++@@@@ooooXXXX++++++++++++++++++++",
"++++++++++++++++++++ooooXXXX++++++++++++++++++++@@@@ooooXXXX++++++++++++++++++++++++++++++++++++@@@@ooooXXXX++++++++++++++++++++",
"++++++++++++++++++++ooooXXXX++++++++++++++++++++@@@@ooooXXXX++++++++++++++++++++++++++++++++++++@@@@ooooXXXX++++++++++++++++++++",
"++++++++++++++++++++ooooXXXX++++++++++++++++++++@@@@ooooXXXX++++++++++++++++++++++++++++++++++++@@@@ooooXXXX++++++++++++++++++++",
"++++++++++++++++++++ooooXXXX++++++++++++++++++++@@@@ooooXXXX++++++++++++++++++++++++++++++++++++@@@@ooooXXXX++++++++++++++++++++",
"ooooooooooooooooooooooooXXXX++++++++++++++++++++@@@@ooooXXXX++++++++++++++++++++++++++++++++++++@@@@oooooooooooooooooooooooooooo",
"ooooooooooooooooooooooooXXXX++++++++++++++++++++@@@@ooooXXXX++++++++++++++++++++++++++++++++++++@@@@oooooooooooooooooooooooooooo",
"ooooooooooooooooooooooooXXXX++++++++++++++++++++@@@@ooooXXXX++++++++++++++++++++++++++++++++++++@@@@oooooooooooooooooooooooooooo",
"ooooooooooooooooooooooooXXXX++++++++++++++++++++@@@@ooooXXXX++++++++++++++++++++++++++++++++++++@@@@oooooooooooooooooooooooooooo",
"XXXXXXXXXXXXXXXXXXXXooooXXXX++++++++++++++++++++@@@@ooooXXXX++++++++++++++++++++++++++++++++++++@@@@XXXXXXXXXXXXXXXXXXXXXXXXXXXX",
"XXXXXXXXXXXXXXXXXXXXooooXXXX++++++++++++++++++++@@@@ooooXXXX++++++++++++++++++++++++++++++++++++@@@@XXXXXXXXXXXXXXXXXXXXXXXXXXXX",
"XXXXXXXXXXXXXXXXXXXXooooXXXX++++++++++++++++++++@@@@ooooXXXX++++++++++++++++++++++++++++++++++++@@@@XXXXXXXXXXXXXXXXXXXXXXXXXXXX",
"XXXXXXXXXXXXXXXXXXXXooooXXXX++++++++++++++++++++@@@@ooooXXXX++++++++++++++++++++++++++++++++++++@@@@XXXXXXXXXXXXXXXXXXXXXXXXXXXX",
"++++++++++++++++@@@@ooooXXXX++++++++++++++++++++@@@@ooooXXXX++++++++++++++++++++++++++++++++++++++++++++++++++++++++++++++++++++",
"++++++++++++++++@@@@ooooXXXX++++++++++++++++++++@@@@ooooXXXX++++++++++++++++++++++++++++++++++++++++++++++++++++++++++++++++++++",
"++++++++++++++++@@@@ooooXXXX++++++++++++++++++++@@@@ooooXXXX++++++++++++++++++++++++++++++++++++++++++++++++++++++++++++++++++++",
"++++++++++++++++@@@@ooooXXXX++++++++++++++++++++@@@@ooooXXXX++++++++++++++++++++++++++++++++++++++++++++++++++++++++++++++++++++",
"++++++++++++++++@@@@ooooXXXX++++++++++++++++++++@@@@ooooXXXX++++++++++++oooooooooooooooooooooooooooooooooooooooooooooooooooo++++",
"++++++++++++++++@@@@ooooXXXX++++++++++++++++++++@@@@ooooXXXX++++++++++++oooooooooooooooooooooooooooooooooooooooooooooooooooo++++",
"++++++++++++++++@@@@ooooXXXX++++++++++++++++++++@@@@ooooXXXX++++++++++++oooooooooooooooooooooooooooooooooooooooooooooooooooo++++",
"++++++++++++++++@@@@ooooXXXX++++++++++++++++++++@@@@ooooXXXX++++++++++++oooooooooooooooooooooooooooooooooooooooooooooooooooo++++",
"++++++++++++++++@@@@oooooooooooooooooooooooooooo@@@@ooooXXXX++++++++++++oooo....OOOOOOOOooooOOOOOOOO....OOOOooooOOOO....++++++++",
"++++++++++++++++@@@@oooooooooooooooooooooooooooo@@@@ooooXXXX++++++++++++oooo....OOOOOOOOooooOOOOOOOO....OOOOooooOOOO....++++++++",
"++++++++++++++++@@@@oooooooooooooooooooooooooooo@@@@ooooXXXX++++++++++++oooo....OOOOOOOOooooOOOOOOOO....OOOOooooOOOO....++++++++",
"++++++++++++++++@@@@oooooooooooooooooooooooooooo@@@@ooooXXXX++++++++++++oooo....OOOOOOOOooooOOOOOOOO....OOOOooooOOOO....++++++++",
"++++++++++++++++@@@@ooooXXXXXXXXXXXXXXXXXXXXXXXX@@@@ooooXXXX++++++++++++oooo....OOOOOOOO....OOOOOOOO....oooo....oooo....++++++++",
"++++++++++++++++@@@@ooooXXXXXXXXXXXXXXXXXXXXXXXX@@@@ooooXXXX++++++++++++oooo....OOOOOOOO....OOOOOOOO....oooo....oooo....++++++++",
"++++++++++++++++@@@@ooooXXXXXXXXXXXXXXXXXXXXXXXX@@@@ooooXXXX++++++++++++oooo....OOOOOOOO....OOOOOOOO....oooo....oooo....++++++++",
"++++++++++++++++@@@@ooooXXXXXXXXXXXXXXXXXXXXXXXX@@@@ooooXXXX++++++++++++oooo....OOOOOOOO....OOOOOOOO....oooo....oooo....++++++++",
"@@@@++++++++++++@@@@ooooXXXX++++++++++++++++++++@@@@ooooXXXX++++++++@@@@########################################################",
"@@@@++++++++++++@@@@ooooXXXX++++++++++++++++++++@@@@ooooXXXX++++++++@@@@########################################################",
"@@@@++++++++++++@@@@ooooXXXX++++++++++++++++++++@@@@ooooXXXX++++++++@@@@########################################################",
"@@@@++++++++++++@@@@ooooXXXX++++++++++++++++++++@@@@ooooXXXX++++++++@@@@########################################################",
"oooo++++++++++++@@@@ooooXXXX++++++++++++++++++++@@@@ooooXXXX++++@@@@oooooooooooooooooooooooooooooooooooooooooooooooooooooooooooo",
"oooo++++++++++++@@@@ooooXXXX++++++++++++++++++++@@@@ooooXXXX++++@@@@oooooooooooooooooooooooooooooooooooooooooooooooooooooooooooo",
"oooo++++++++++++@@@@ooooXXXX++++++++++++++++++++@@@@ooooXXXX++++@@@@oooooooooooooooooooooooooooooooooooooooooooooooooooooooooooo",
"oooo++++++++++++@@@@ooooXXXX++++++++++++++++++++@@@@ooooXXXX++++@@@@oooooooooooooooooooooooooooooooooooooooooooooooooooooooooooo",
"oooo++++++++++++@@@@ooooXXXX++++++++++++++++++++@@@@ooooXXXX@@@@oooo                                                            ",
"oooo++++++++++++@@@@ooooXXXX++++++++++++++++++++@@@@ooooXXXX@@@@oooo                                                            ",
"oooo++++++++++++@@@@ooooXXXX++++++++++++++++++++@@@@ooooXXXX@@@@oooo                                                            ",
"oooo++++++++++++@@@@ooooXXXX++++++++++++++++++++@@@@ooooXXXX@@@@oooo                                                            ",
"oooo++++++++++++@@@@ooooXXXX++++++++++++++++++++@@@@oooo@@@@oooo                                                                ",
"oooo++++++++++++@@@@ooooXXXX++++++++++++++++++++@@@@oooo@@@@oooo                                                                ",
"oooo++++++++++++@@@@ooooXXXX++++++++++++++++++++@@@@oooo@@@@oooo                                                                ",
"oooo++++++++++++@@@@ooooXXXX++++++++++++++++++++@@@@oooo@@@@oooo                                                                ",
"oooo@@@@####################################@@@@@@@@oooooooo            oooooooooooooooooooooooooooooooooooooooooooooooooooooooo",
"oooo@@@@####################################@@@@@@@@oooooooo            oooooooooooooooooooooooooooooooooooooooooooooooooooooooo",
"oooo@@@@####################################@@@@@@@@oooooooo            oooooooooooooooooooooooooooooooooooooooooooooooooooooooo",
"oooo@@@@####################################@@@@@@@@oooooooo            oooooooooooooooooooooooooooooooooooooooooooooooooooooooo",
"oooooooooooooooooooooooooooooooooooooooooooooooooooooooo            ooooooooXXXXXXXXXXXXXXXXooooXXXXXXXXXXXXXXXXXXXXXXXX@@@@oooo",
"oooooooooooooooooooooooooooooooooooooooooooooooooooooooo            ooooooooXXXXXXXXXXXXXXXXooooXXXXXXXXXXXXXXXXXXXXXXXX@@@@oooo",
"oooooooooooooooooooooooooooooooooooooooooooooooooooooooo            ooooooooXXXXXXXXXXXXXXXXooooXXXXXXXXXXXXXXXXXXXXXXXX@@@@oooo",
"oooooooooooooooooooooooooooooooooooooooooooooooooooooooo            ooooooooXXXXXXXXXXXXXXXXooooXXXXXXXXXXXXXXXXXXXXXXXX@@@@oooo",
"                                                                oooo@@@@ooooXXXX++++++++@@@@ooooXXXX++++++++++++++++++++@@@@oooo",
"                                                                oooo@@@@ooooXXXX++++++++@@@@ooooXXXX++++++++++++++++++++@@@@oooo",
"                                                                oooo@@@@ooooXXXX++++++++@@@@ooooXXXX++++++++++++++++++++@@@@oooo",
"                                                                oooo@@@@ooooXXXX++++++++@@@@ooooXXXX++++++++++++++++++++@@@@oooo",
"                                                            ooooXXXX@@@@ooooXXXX++++++++@@@@ooooXXXX++++++++++++++++++++@@@@oooo",
"                                                            ooooXXXX@@@@ooooXXXX++++++++@@@@ooooXXXX++++++++++++++++++++@@@@oooo",
"                                                            ooooXXXX@@@@ooooXXXX++++++++@@@@ooooXXXX++++++++++++++++++++@@@@oooo",
"                                                            ooooXXXX@@@@ooooXXXX++++++++@@@@ooooXXXX++++++++++++++++++++@@@@oooo",
"ooooooooooooooooooooooooooooooooooooooooooooooooooooooooooooXXXX++++@@@@ooooXXXX++++++++@@@@ooooXXXX++++++++++++++++++++@@@@oooo",
"ooooooooooooooooooooooooooooooooooooooooooooooooooooooooooooXXXX++++@@@@ooooXXXX++++++++@@@@ooooXXXX++++++++++++++++++++@@@@oooo",
"ooooooooooooooooooooooooooooooooooooooooooooooooooooooooooooXXXX++++@@@@ooooXXXX++++++++@@@@ooooXXXX++++++++++++++++++++@@@@oooo",
"ooooooooooooooooooooooooooooooooooooooooooooooooooooooooooooXXXX++++@@@@ooooXXXX++++++++@@@@ooooXXXX++++++++++++++++++++@@@@oooo",
"XXXXXXXXXXXXXXXXXXXXXXXXooooXXXXXXXXXXXXXXXXXXXXXXXXXXXXXXXX++++++++@@@@ooooXXXX++++++++@@@@ooooXXXX++++++++++++++++++++@@@@XXXX",
"XXXXXXXXXXXXXXXXXXXXXXXXooooXXXXXXXXXXXXXXXXXXXXXXXXXXXXXXXX++++++++@@@@ooooXXXX++++++++@@@@ooooXXXX++++++++++++++++++++@@@@XXXX",
"XXXXXXXXXXXXXXXXXXXXXXXXooooXXXXXXXXXXXXXXXXXXXXXXXXXXXXXXXX++++++++@@@@ooooXXXX++++++++@@@@ooooXXXX++++++++++++++++++++@@@@XXXX",
"XXXXXXXXXXXXXXXXXXXXXXXXooooXXXXXXXXXXXXXXXXXXXXXXXXXXXXXXXX++++++++@@@@ooooXXXX++++++++@@@@ooooXXXX++++++++++++++++++++@@@@XXXX",
"++++++++++++++++++++@@@@ooooXXXX++++++++++++++++++++++++++++++++++++@@@@oooooooooooooooooooooooooooooooo++++++++++++++++++++++++",
"++++++++++++++++++++@@@@ooooXXXX++++++++++++++++++++++++++++++++++++@@@@oooooooooooooooooooooooooooooooo++++++++++++++++++++++++",
"++++++++++++++++++++@@@@ooooXXXX++++++++++++++++++++++++++++++++++++@@@@oooooooooooooooooooooooooooooooo++++++++++++++++++++++++",
"++++++++++++++++++++@@@@ooooXXXX++++++++++++++++++++++++++++++++++++@@@@oooooooooooooooooooooooooooooooo++++++++++++++++++++++++",
"++++++++++++++++++++@@@@ooooXXXX++++++++++++++++++++++++++++++++++++@@@@oooo                            oooo++++++++++++++++++++",
"++++++++++++++++++++@@@@ooooXXXX++++++++++++++++++++++++++++++++++++@@@@oooo                            oooo++++++++++++++++++++",
"++++++++++++++++++++@@@@ooooXXXX++++++++++++++++++++++++++++++++++++@@@@oooo                            oooo++++++++++++++++++++",
"++++++++++++++++++++@@@@ooooXXXX++++++++++++++++++++++++++++++++++++@@@@oooo                            oooo++++++++++++++++++++",
"++++++++++++++++++++@@@@ooooXXXX++++++++++++++++++++++++++++++++++++@@@@oooo    ............    ....    oooooooo++++++++++++++++",
"++++++++++++++++++++@@@@ooooXXXX++++++++++++++++++++++++++++++++++++@@@@oooo    ............    ....    oooooooo++++++++++++++++",
"++++++++++++++++++++@@@@ooooXXXX++++++++++++++++++++++++++++++++++++@@@@oooo    ............    ....    oooooooo++++++++++++++++",
"++++++++++++++++++++@@@@ooooXXXX++++++++++++++++++++++++++++++++++++@@@@oooo    ............    ....    oooooooo++++++++++++++++",
"++++++++++++++++++++@@@@ooooXXXX++++++++++++++++++++++++++++++++++++@@@@oooo                            ooooXXXXoooo++++++++++++",
"++++++++++++++++++++@@@@ooooXXXX++++++++++++++++++++++++++++++++++++@@@@oooo                            ooooXXXXoooo++++++++++++",
"++++++++++++++++++++@@@@ooooXXXX++++++++++++++++++++++++++++++++++++@@@@oooo                            ooooXXXXoooo++++++++++++",
"++++++++++++++++++++@@@@ooooXXXX++++++++++++++++++++++++++++++++++++@@@@oooo                            ooooXXXXoooo++++++++++++",
"oooooooooooooooooooooooooooooooooooooooooooooooooooooooooooooooooooo@@@@oooo    OOOOOOOO    OOOO        oooo++++XXXXoooooooooooo",
"oooooooooooooooooooooooooooooooooooooooooooooooooooooooooooooooooooo@@@@oooo    OOOOOOOO    OOOO        oooo++++XXXXoooooooooooo",
"oooooooooooooooooooooooooooooooooooooooooooooooooooooooooooooooooooo@@@@oooo    OOOOOOOO    OOOO        oooo++++XXXXoooooooooooo",
"oooooooooooooooooooooooooooooooooooooooooooooooooooooooooooooooooooo@@@@oooo    OOOOOOOO    OOOO        oooo++++XXXXoooooooooooo",
"XXXXXXXXooooXXXXXXXXXXXXXXXXXXXXXXXXXXXXXXXXXXXXXXXXXXXXXXXXXXXXXXXX@@@@oooo                            oooo++++++++XXXXXXXXXXXX",
"XXXXXXXXooooXXXXXXXXXXXXXXXXXXXXXXXXXXXXXXXXXXXXXXXXXXXXXXXXXXXXXXXX@@@@oooo                            oooo++++++++XXXXXXXXXXXX",
"XXXXXXXXooooXXXXXXXXXXXXXXXXXXXXXXXXXXXXXXXXXXXXXXXXXXXXXXXXXXXXXXXX@@@@oooo                            oooo++++++++XXXXXXXXXXXX",
"XXXXXXXXooooXXXXXXXXXXXXXXXXXXXXXXXXXXXXXXXXXXXXXXXXXXXXXXXXXXXXXXXX@@@@oooo                            oooo++++++++XXXXXXXXXXXX",
"++++@@@@ooooXXXX++++++++++++++++++++++++OOOO++++OOOO++++OOOO++++++++@@@@oooo    OOOOOOOO    OOOOOOOO    oooo++++++++++++++++++++",
"++++@@@@ooooXXXX++++++++++++++++++++++++OOOO++++OOOO++++OOOO++++++++@@@@oooo    OOOOOOOO    OOOOOOOO    oooo++++++++++++++++++++",
"++++@@@@ooooXXXX++++++++++++++++++++++++OOOO++++OOOO++++OOOO++++++++@@@@oooo    OOOOOOOO    OOOOOOOO    oooo++++++++++++++++++++",
"++++@@@@ooooXXXX++++++++++++++++++++++++OOOO++++OOOO++++OOOO++++++++@@@@oooo    OOOOOOOO    OOOOOOOO    oooo++++++++++++++++++++",
"++++@@@@ooooXXXX++++++++++++++++++++++++++++++++++++++++++++++++++++@@@@oooo                            oooo++++++++++++++++++++",
"++++@@@@ooooXXXX++++++++++++++++++++++++++++++++++++++++++++++++++++@@@@oooo                            oooo++++++++++++++++++++",
"++++@@@@ooooXXXX++++++++++++++++++++++++++++++++++++++++++++++++++++@@@@oooo                            oooo++++++++++++++++++++",
"++++@@@@ooooXXXX++++++++++++++++++++++++++++++++++++++++++++++++++++@@@@oooo                            oooo++++++++++++++++++++",
"++++@@@@ooooXXXX++++++++++++++++++++++++++++++++++++++++++++++++++++@@@@oooo                            oooo++++++++++++++++++++",
"++++@@@@ooooXXXX++++++++++++++++++++++++++++++++++++++++++++++++++++@@@@oooo                            oooo++++++++++++++++++++",
"++++@@@@ooooXXXX++++++++++++++++++++++++++++++++++++++++++++++++++++@@@@oooo                            oooo++++++++++++++++++++",
"++++@@@@ooooXXXX++++++++++++++++++++++++++++++++++++++++++++++++++++@@@@oooo                            oooo++++++++++++++++++++",
"oooooooooooooooooooooooooooooooooooooooooooooooooooooooooooooooooooooooooooooooooooooooooooooooooooooooooooooooooooooooooooooooo",
"oooooooooooooooooooooooooooooooooooooooooooooooooooooooooooooooooooooooooooooooooooooooooooooooooooooooooooooooooooooooooooooooo",
"oooooooooooooooooooooooooooooooooooooooooooooooooooooooooooooooooooooooooooooooooooooooooooooooooooooooooooooooooooooooooooooooo",
"oooooooooooooooooooooooooooooooooooooooooooooooooooooooooooooooooooooooooooooooooooooooooooooooooooooooooooooooooooooooooooooooo"
};
